<?xml version="1.0" encoding="utf-8" standalone="no"?>
<!DOCTYPE svg PUBLIC "-//W3C//DTD SVG 1.1//EN"
  "http://www.w3.org/Graphics/SVG/1.1/DTD/svg11.dtd">
<svg height="288pt" version="1.1" viewBox="0 0 432 288" width="432pt" xmlns="http://www.w3.org/2000/svg" xmlns:xlink="http://www.w3.org/1999/xlink">
 <metadata>
  <rdf:RDF xmlns:cc="http://creativecommons.org/ns#" xmlns:dc="http://purl.org/dc/elements/1.1/" xmlns:rdf="http://www.w3.org/1999/02/22-rdf-syntax-ns#">
   <cc:Work>
    <dc:type rdf:resource="http://purl.org/dc/dcmitype/StillImage"/>
    <dc:date>2022-02-03T09:42:05.985321</dc:date>
    <dc:format>image/svg+xml</dc:format>
    <dc:creator>
     <cc:Agent>
      <dc:title>Matplotlib v3.4.3, https://matplotlib.org/</dc:title>
     </cc:Agent>
    </dc:creator>
   </cc:Work>
  </rdf:RDF>
 </metadata>
 <defs>
  <style type="text/css">*{stroke-linecap:butt;stroke-linejoin:round;}</style>
 </defs>
 <g id="figure_1">
  <g id="patch_1">
   <path d="M 0 288 
L 432 288 
L 432 0 
L 0 0 
z
" style="fill:none;"/>
  </g>
  <g id="axes_1">
   <g id="patch_2">
    <path d="M 54 252 
L 388.8 252 
L 388.8 34.56 
L 54 34.56 
z
" style="fill:#ffffff;"/>
   </g>
   <g id="matplotlib.axis_1">
    <g id="xtick_1">
     <g id="line2d_1">
      <defs>
       <path d="M 0 0 
L 0 3.5 
" id="md010d98292" style="stroke:#000000;stroke-width:0.8;"/>
      </defs>
      <g>
       <use style="stroke:#000000;stroke-width:0.8;" x="69.218182" xlink:href="#md010d98292" y="252"/>
      </g>
     </g>
     <g id="text_1">
      <!-- $\mathdefault{10^{-2}}$ -->
      <g transform="translate(57.468182 266.598437)scale(0.1 -0.1)">
       <defs>
        <path d="M 794 531 
L 1825 531 
L 1825 4091 
L 703 3866 
L 703 4441 
L 1819 4666 
L 2450 4666 
L 2450 531 
L 3481 531 
L 3481 0 
L 794 0 
L 794 531 
z
" id="DejaVuSans-31" transform="scale(0.015625)"/>
        <path d="M 2034 4250 
Q 1547 4250 1301 3770 
Q 1056 3291 1056 2328 
Q 1056 1369 1301 889 
Q 1547 409 2034 409 
Q 2525 409 2770 889 
Q 3016 1369 3016 2328 
Q 3016 3291 2770 3770 
Q 2525 4250 2034 4250 
z
M 2034 4750 
Q 2819 4750 3233 4129 
Q 3647 3509 3647 2328 
Q 3647 1150 3233 529 
Q 2819 -91 2034 -91 
Q 1250 -91 836 529 
Q 422 1150 422 2328 
Q 422 3509 836 4129 
Q 1250 4750 2034 4750 
z
" id="DejaVuSans-30" transform="scale(0.015625)"/>
        <path d="M 678 2272 
L 4684 2272 
L 4684 1741 
L 678 1741 
L 678 2272 
z
" id="DejaVuSans-2212" transform="scale(0.015625)"/>
        <path d="M 1228 531 
L 3431 531 
L 3431 0 
L 469 0 
L 469 531 
Q 828 903 1448 1529 
Q 2069 2156 2228 2338 
Q 2531 2678 2651 2914 
Q 2772 3150 2772 3378 
Q 2772 3750 2511 3984 
Q 2250 4219 1831 4219 
Q 1534 4219 1204 4116 
Q 875 4013 500 3803 
L 500 4441 
Q 881 4594 1212 4672 
Q 1544 4750 1819 4750 
Q 2544 4750 2975 4387 
Q 3406 4025 3406 3419 
Q 3406 3131 3298 2873 
Q 3191 2616 2906 2266 
Q 2828 2175 2409 1742 
Q 1991 1309 1228 531 
z
" id="DejaVuSans-32" transform="scale(0.015625)"/>
       </defs>
       <use transform="translate(0 0.765625)" xlink:href="#DejaVuSans-31"/>
       <use transform="translate(63.623047 0.765625)" xlink:href="#DejaVuSans-30"/>
       <use transform="translate(128.203125 39.046875)scale(0.7)" xlink:href="#DejaVuSans-2212"/>
       <use transform="translate(186.855469 39.046875)scale(0.7)" xlink:href="#DejaVuSans-32"/>
      </g>
     </g>
    </g>
    <g id="xtick_2">
     <g id="line2d_2">
      <g>
       <use style="stroke:#000000;stroke-width:0.8;" x="133.990597" xlink:href="#md010d98292" y="252"/>
      </g>
     </g>
     <g id="text_2">
      <!-- $\mathdefault{10^{-1}}$ -->
      <g transform="translate(122.240597 266.598437)scale(0.1 -0.1)">
       <use transform="translate(0 0.684375)" xlink:href="#DejaVuSans-31"/>
       <use transform="translate(63.623047 0.684375)" xlink:href="#DejaVuSans-30"/>
       <use transform="translate(128.203125 38.965625)scale(0.7)" xlink:href="#DejaVuSans-2212"/>
       <use transform="translate(186.855469 38.965625)scale(0.7)" xlink:href="#DejaVuSans-31"/>
      </g>
     </g>
    </g>
    <g id="xtick_3">
     <g id="line2d_3">
      <g>
       <use style="stroke:#000000;stroke-width:0.8;" x="198.763012" xlink:href="#md010d98292" y="252"/>
      </g>
     </g>
     <g id="text_3">
      <!-- $\mathdefault{10^{0}}$ -->
      <g transform="translate(189.963012 266.598437)scale(0.1 -0.1)">
       <use transform="translate(0 0.765625)" xlink:href="#DejaVuSans-31"/>
       <use transform="translate(63.623047 0.765625)" xlink:href="#DejaVuSans-30"/>
       <use transform="translate(128.203125 39.046875)scale(0.7)" xlink:href="#DejaVuSans-30"/>
      </g>
     </g>
    </g>
    <g id="xtick_4">
     <g id="line2d_4">
      <g>
       <use style="stroke:#000000;stroke-width:0.8;" x="263.535428" xlink:href="#md010d98292" y="252"/>
      </g>
     </g>
     <g id="text_4">
      <!-- $\mathdefault{10^{1}}$ -->
      <g transform="translate(254.735428 266.598437)scale(0.1 -0.1)">
       <use transform="translate(0 0.684375)" xlink:href="#DejaVuSans-31"/>
       <use transform="translate(63.623047 0.684375)" xlink:href="#DejaVuSans-30"/>
       <use transform="translate(128.203125 38.965625)scale(0.7)" xlink:href="#DejaVuSans-31"/>
      </g>
     </g>
    </g>
    <g id="xtick_5">
     <g id="line2d_5">
      <g>
       <use style="stroke:#000000;stroke-width:0.8;" x="328.307843" xlink:href="#md010d98292" y="252"/>
      </g>
     </g>
     <g id="text_5">
      <!-- $\mathdefault{10^{2}}$ -->
      <g transform="translate(319.507843 266.598437)scale(0.1 -0.1)">
       <use transform="translate(0 0.765625)" xlink:href="#DejaVuSans-31"/>
       <use transform="translate(63.623047 0.765625)" xlink:href="#DejaVuSans-30"/>
       <use transform="translate(128.203125 39.046875)scale(0.7)" xlink:href="#DejaVuSans-32"/>
      </g>
     </g>
    </g>
    <g id="xtick_6">
     <g id="line2d_6">
      <defs>
       <path d="M 0 0 
L 0 2 
" id="m46070f9d63" style="stroke:#000000;stroke-width:0.6;"/>
      </defs>
      <g>
       <use style="stroke:#000000;stroke-width:0.6;" x="54.848502" xlink:href="#m46070f9d63" y="252"/>
      </g>
     </g>
    </g>
    <g id="xtick_7">
     <g id="line2d_7">
      <g>
       <use style="stroke:#000000;stroke-width:0.6;" x="59.184808" xlink:href="#m46070f9d63" y="252"/>
      </g>
     </g>
    </g>
    <g id="xtick_8">
     <g id="line2d_8">
      <g>
       <use style="stroke:#000000;stroke-width:0.6;" x="62.941086" xlink:href="#m46070f9d63" y="252"/>
      </g>
     </g>
    </g>
    <g id="xtick_9">
     <g id="line2d_9">
      <g>
       <use style="stroke:#000000;stroke-width:0.6;" x="66.254359" xlink:href="#m46070f9d63" y="252"/>
      </g>
     </g>
    </g>
    <g id="xtick_10">
     <g id="line2d_10">
      <g>
       <use style="stroke:#000000;stroke-width:0.6;" x="88.716622" xlink:href="#m46070f9d63" y="252"/>
      </g>
     </g>
    </g>
    <g id="xtick_11">
     <g id="line2d_11">
      <g>
       <use style="stroke:#000000;stroke-width:0.6;" x="100.122478" xlink:href="#m46070f9d63" y="252"/>
      </g>
     </g>
    </g>
    <g id="xtick_12">
     <g id="line2d_12">
      <g>
       <use style="stroke:#000000;stroke-width:0.6;" x="108.215062" xlink:href="#m46070f9d63" y="252"/>
      </g>
     </g>
    </g>
    <g id="xtick_13">
     <g id="line2d_13">
      <g>
       <use style="stroke:#000000;stroke-width:0.6;" x="114.492157" xlink:href="#m46070f9d63" y="252"/>
      </g>
     </g>
    </g>
    <g id="xtick_14">
     <g id="line2d_14">
      <g>
       <use style="stroke:#000000;stroke-width:0.6;" x="119.620918" xlink:href="#m46070f9d63" y="252"/>
      </g>
     </g>
    </g>
    <g id="xtick_15">
     <g id="line2d_15">
      <g>
       <use style="stroke:#000000;stroke-width:0.6;" x="123.957223" xlink:href="#m46070f9d63" y="252"/>
      </g>
     </g>
    </g>
    <g id="xtick_16">
     <g id="line2d_16">
      <g>
       <use style="stroke:#000000;stroke-width:0.6;" x="127.713501" xlink:href="#m46070f9d63" y="252"/>
      </g>
     </g>
    </g>
    <g id="xtick_17">
     <g id="line2d_17">
      <g>
       <use style="stroke:#000000;stroke-width:0.6;" x="131.026774" xlink:href="#m46070f9d63" y="252"/>
      </g>
     </g>
    </g>
    <g id="xtick_18">
     <g id="line2d_18">
      <g>
       <use style="stroke:#000000;stroke-width:0.6;" x="153.489037" xlink:href="#m46070f9d63" y="252"/>
      </g>
     </g>
    </g>
    <g id="xtick_19">
     <g id="line2d_19">
      <g>
       <use style="stroke:#000000;stroke-width:0.6;" x="164.894893" xlink:href="#m46070f9d63" y="252"/>
      </g>
     </g>
    </g>
    <g id="xtick_20">
     <g id="line2d_20">
      <g>
       <use style="stroke:#000000;stroke-width:0.6;" x="172.987477" xlink:href="#m46070f9d63" y="252"/>
      </g>
     </g>
    </g>
    <g id="xtick_21">
     <g id="line2d_21">
      <g>
       <use style="stroke:#000000;stroke-width:0.6;" x="179.264572" xlink:href="#m46070f9d63" y="252"/>
      </g>
     </g>
    </g>
    <g id="xtick_22">
     <g id="line2d_22">
      <g>
       <use style="stroke:#000000;stroke-width:0.6;" x="184.393333" xlink:href="#m46070f9d63" y="252"/>
      </g>
     </g>
    </g>
    <g id="xtick_23">
     <g id="line2d_23">
      <g>
       <use style="stroke:#000000;stroke-width:0.6;" x="188.729638" xlink:href="#m46070f9d63" y="252"/>
      </g>
     </g>
    </g>
    <g id="xtick_24">
     <g id="line2d_24">
      <g>
       <use style="stroke:#000000;stroke-width:0.6;" x="192.485917" xlink:href="#m46070f9d63" y="252"/>
      </g>
     </g>
    </g>
    <g id="xtick_25">
     <g id="line2d_25">
      <g>
       <use style="stroke:#000000;stroke-width:0.6;" x="195.799189" xlink:href="#m46070f9d63" y="252"/>
      </g>
     </g>
    </g>
    <g id="xtick_26">
     <g id="line2d_26">
      <g>
       <use style="stroke:#000000;stroke-width:0.6;" x="218.261452" xlink:href="#m46070f9d63" y="252"/>
      </g>
     </g>
    </g>
    <g id="xtick_27">
     <g id="line2d_27">
      <g>
       <use style="stroke:#000000;stroke-width:0.6;" x="229.667308" xlink:href="#m46070f9d63" y="252"/>
      </g>
     </g>
    </g>
    <g id="xtick_28">
     <g id="line2d_28">
      <g>
       <use style="stroke:#000000;stroke-width:0.6;" x="237.759892" xlink:href="#m46070f9d63" y="252"/>
      </g>
     </g>
    </g>
    <g id="xtick_29">
     <g id="line2d_29">
      <g>
       <use style="stroke:#000000;stroke-width:0.6;" x="244.036988" xlink:href="#m46070f9d63" y="252"/>
      </g>
     </g>
    </g>
    <g id="xtick_30">
     <g id="line2d_30">
      <g>
       <use style="stroke:#000000;stroke-width:0.6;" x="249.165748" xlink:href="#m46070f9d63" y="252"/>
      </g>
     </g>
    </g>
    <g id="xtick_31">
     <g id="line2d_31">
      <g>
       <use style="stroke:#000000;stroke-width:0.6;" x="253.502053" xlink:href="#m46070f9d63" y="252"/>
      </g>
     </g>
    </g>
    <g id="xtick_32">
     <g id="line2d_32">
      <g>
       <use style="stroke:#000000;stroke-width:0.6;" x="257.258332" xlink:href="#m46070f9d63" y="252"/>
      </g>
     </g>
    </g>
    <g id="xtick_33">
     <g id="line2d_33">
      <g>
       <use style="stroke:#000000;stroke-width:0.6;" x="260.571604" xlink:href="#m46070f9d63" y="252"/>
      </g>
     </g>
    </g>
    <g id="xtick_34">
     <g id="line2d_34">
      <g>
       <use style="stroke:#000000;stroke-width:0.6;" x="283.033867" xlink:href="#m46070f9d63" y="252"/>
      </g>
     </g>
    </g>
    <g id="xtick_35">
     <g id="line2d_35">
      <g>
       <use style="stroke:#000000;stroke-width:0.6;" x="294.439724" xlink:href="#m46070f9d63" y="252"/>
      </g>
     </g>
    </g>
    <g id="xtick_36">
     <g id="line2d_36">
      <g>
       <use style="stroke:#000000;stroke-width:0.6;" x="302.532307" xlink:href="#m46070f9d63" y="252"/>
      </g>
     </g>
    </g>
    <g id="xtick_37">
     <g id="line2d_37">
      <g>
       <use style="stroke:#000000;stroke-width:0.6;" x="308.809403" xlink:href="#m46070f9d63" y="252"/>
      </g>
     </g>
    </g>
    <g id="xtick_38">
     <g id="line2d_38">
      <g>
       <use style="stroke:#000000;stroke-width:0.6;" x="313.938163" xlink:href="#m46070f9d63" y="252"/>
      </g>
     </g>
    </g>
    <g id="xtick_39">
     <g id="line2d_39">
      <g>
       <use style="stroke:#000000;stroke-width:0.6;" x="318.274469" xlink:href="#m46070f9d63" y="252"/>
      </g>
     </g>
    </g>
    <g id="xtick_40">
     <g id="line2d_40">
      <g>
       <use style="stroke:#000000;stroke-width:0.6;" x="322.030747" xlink:href="#m46070f9d63" y="252"/>
      </g>
     </g>
    </g>
    <g id="xtick_41">
     <g id="line2d_41">
      <g>
       <use style="stroke:#000000;stroke-width:0.6;" x="325.34402" xlink:href="#m46070f9d63" y="252"/>
      </g>
     </g>
    </g>
    <g id="xtick_42">
     <g id="line2d_42">
      <g>
       <use style="stroke:#000000;stroke-width:0.6;" x="347.806283" xlink:href="#m46070f9d63" y="252"/>
      </g>
     </g>
    </g>
    <g id="xtick_43">
     <g id="line2d_43">
      <g>
       <use style="stroke:#000000;stroke-width:0.6;" x="359.212139" xlink:href="#m46070f9d63" y="252"/>
      </g>
     </g>
    </g>
    <g id="xtick_44">
     <g id="line2d_44">
      <g>
       <use style="stroke:#000000;stroke-width:0.6;" x="367.304723" xlink:href="#m46070f9d63" y="252"/>
      </g>
     </g>
    </g>
    <g id="xtick_45">
     <g id="line2d_45">
      <g>
       <use style="stroke:#000000;stroke-width:0.6;" x="373.581818" xlink:href="#m46070f9d63" y="252"/>
      </g>
     </g>
    </g>
    <g id="xtick_46">
     <g id="line2d_46">
      <g>
       <use style="stroke:#000000;stroke-width:0.6;" x="378.710579" xlink:href="#m46070f9d63" y="252"/>
      </g>
     </g>
    </g>
    <g id="xtick_47">
     <g id="line2d_47">
      <g>
       <use style="stroke:#000000;stroke-width:0.6;" x="383.046884" xlink:href="#m46070f9d63" y="252"/>
      </g>
     </g>
    </g>
    <g id="xtick_48">
     <g id="line2d_48">
      <g>
       <use style="stroke:#000000;stroke-width:0.6;" x="386.803162" xlink:href="#m46070f9d63" y="252"/>
      </g>
     </g>
    </g>
    <g id="text_6">
     <!-- alpha -->
     <g transform="translate(207.539844 280.276563)scale(0.1 -0.1)">
      <defs>
       <path d="M 2194 1759 
Q 1497 1759 1228 1600 
Q 959 1441 959 1056 
Q 959 750 1161 570 
Q 1363 391 1709 391 
Q 2188 391 2477 730 
Q 2766 1069 2766 1631 
L 2766 1759 
L 2194 1759 
z
M 3341 1997 
L 3341 0 
L 2766 0 
L 2766 531 
Q 2569 213 2275 61 
Q 1981 -91 1556 -91 
Q 1019 -91 701 211 
Q 384 513 384 1019 
Q 384 1609 779 1909 
Q 1175 2209 1959 2209 
L 2766 2209 
L 2766 2266 
Q 2766 2663 2505 2880 
Q 2244 3097 1772 3097 
Q 1472 3097 1187 3025 
Q 903 2953 641 2809 
L 641 3341 
Q 956 3463 1253 3523 
Q 1550 3584 1831 3584 
Q 2591 3584 2966 3190 
Q 3341 2797 3341 1997 
z
" id="DejaVuSans-61" transform="scale(0.015625)"/>
       <path d="M 603 4863 
L 1178 4863 
L 1178 0 
L 603 0 
L 603 4863 
z
" id="DejaVuSans-6c" transform="scale(0.015625)"/>
       <path d="M 1159 525 
L 1159 -1331 
L 581 -1331 
L 581 3500 
L 1159 3500 
L 1159 2969 
Q 1341 3281 1617 3432 
Q 1894 3584 2278 3584 
Q 2916 3584 3314 3078 
Q 3713 2572 3713 1747 
Q 3713 922 3314 415 
Q 2916 -91 2278 -91 
Q 1894 -91 1617 61 
Q 1341 213 1159 525 
z
M 3116 1747 
Q 3116 2381 2855 2742 
Q 2594 3103 2138 3103 
Q 1681 3103 1420 2742 
Q 1159 2381 1159 1747 
Q 1159 1113 1420 752 
Q 1681 391 2138 391 
Q 2594 391 2855 752 
Q 3116 1113 3116 1747 
z
" id="DejaVuSans-70" transform="scale(0.015625)"/>
       <path d="M 3513 2113 
L 3513 0 
L 2938 0 
L 2938 2094 
Q 2938 2591 2744 2837 
Q 2550 3084 2163 3084 
Q 1697 3084 1428 2787 
Q 1159 2491 1159 1978 
L 1159 0 
L 581 0 
L 581 4863 
L 1159 4863 
L 1159 2956 
Q 1366 3272 1645 3428 
Q 1925 3584 2291 3584 
Q 2894 3584 3203 3211 
Q 3513 2838 3513 2113 
z
" id="DejaVuSans-68" transform="scale(0.015625)"/>
      </defs>
      <use xlink:href="#DejaVuSans-61"/>
      <use x="61.279297" xlink:href="#DejaVuSans-6c"/>
      <use x="89.0625" xlink:href="#DejaVuSans-70"/>
      <use x="152.539062" xlink:href="#DejaVuSans-68"/>
      <use x="215.917969" xlink:href="#DejaVuSans-61"/>
     </g>
    </g>
   </g>
   <g id="matplotlib.axis_2">
    <g id="ytick_1">
     <g id="line2d_49">
      <defs>
       <path d="M 0 0 
L -3.5 0 
" id="m3ea26cd076" style="stroke:#000000;stroke-width:0.8;"/>
      </defs>
      <g>
       <use style="stroke:#000000;stroke-width:0.8;" x="54" xlink:href="#m3ea26cd076" y="227.479478"/>
      </g>
     </g>
     <g id="text_7">
      <!-- −500 -->
      <g transform="translate(19.532812 231.278697)scale(0.1 -0.1)">
       <defs>
        <path d="M 691 4666 
L 3169 4666 
L 3169 4134 
L 1269 4134 
L 1269 2991 
Q 1406 3038 1543 3061 
Q 1681 3084 1819 3084 
Q 2600 3084 3056 2656 
Q 3513 2228 3513 1497 
Q 3513 744 3044 326 
Q 2575 -91 1722 -91 
Q 1428 -91 1123 -41 
Q 819 9 494 109 
L 494 744 
Q 775 591 1075 516 
Q 1375 441 1709 441 
Q 2250 441 2565 725 
Q 2881 1009 2881 1497 
Q 2881 1984 2565 2268 
Q 2250 2553 1709 2553 
Q 1456 2553 1204 2497 
Q 953 2441 691 2322 
L 691 4666 
z
" id="DejaVuSans-35" transform="scale(0.015625)"/>
       </defs>
       <use xlink:href="#DejaVuSans-2212"/>
       <use x="83.789062" xlink:href="#DejaVuSans-35"/>
       <use x="147.412109" xlink:href="#DejaVuSans-30"/>
       <use x="211.035156" xlink:href="#DejaVuSans-30"/>
      </g>
     </g>
    </g>
    <g id="ytick_2">
     <g id="line2d_50">
      <g>
       <use style="stroke:#000000;stroke-width:0.8;" x="54" xlink:href="#m3ea26cd076" y="198.021353"/>
      </g>
     </g>
     <g id="text_8">
      <!-- −250 -->
      <g transform="translate(19.532812 201.820572)scale(0.1 -0.1)">
       <use xlink:href="#DejaVuSans-2212"/>
       <use x="83.789062" xlink:href="#DejaVuSans-32"/>
       <use x="147.412109" xlink:href="#DejaVuSans-35"/>
       <use x="211.035156" xlink:href="#DejaVuSans-30"/>
      </g>
     </g>
    </g>
    <g id="ytick_3">
     <g id="line2d_51">
      <g>
       <use style="stroke:#000000;stroke-width:0.8;" x="54" xlink:href="#m3ea26cd076" y="168.563227"/>
      </g>
     </g>
     <g id="text_9">
      <!-- 0 -->
      <g transform="translate(40.6375 172.362446)scale(0.1 -0.1)">
       <use xlink:href="#DejaVuSans-30"/>
      </g>
     </g>
    </g>
    <g id="ytick_4">
     <g id="line2d_52">
      <g>
       <use style="stroke:#000000;stroke-width:0.8;" x="54" xlink:href="#m3ea26cd076" y="139.105102"/>
      </g>
     </g>
     <g id="text_10">
      <!-- 250 -->
      <g transform="translate(27.9125 142.904321)scale(0.1 -0.1)">
       <use xlink:href="#DejaVuSans-32"/>
       <use x="63.623047" xlink:href="#DejaVuSans-35"/>
       <use x="127.246094" xlink:href="#DejaVuSans-30"/>
      </g>
     </g>
    </g>
    <g id="ytick_5">
     <g id="line2d_53">
      <g>
       <use style="stroke:#000000;stroke-width:0.8;" x="54" xlink:href="#m3ea26cd076" y="109.646977"/>
      </g>
     </g>
     <g id="text_11">
      <!-- 500 -->
      <g transform="translate(27.9125 113.446195)scale(0.1 -0.1)">
       <use xlink:href="#DejaVuSans-35"/>
       <use x="63.623047" xlink:href="#DejaVuSans-30"/>
       <use x="127.246094" xlink:href="#DejaVuSans-30"/>
      </g>
     </g>
    </g>
    <g id="ytick_6">
     <g id="line2d_54">
      <g>
       <use style="stroke:#000000;stroke-width:0.8;" x="54" xlink:href="#m3ea26cd076" y="80.188851"/>
      </g>
     </g>
     <g id="text_12">
      <!-- 750 -->
      <g transform="translate(27.9125 83.98807)scale(0.1 -0.1)">
       <defs>
        <path d="M 525 4666 
L 3525 4666 
L 3525 4397 
L 1831 0 
L 1172 0 
L 2766 4134 
L 525 4134 
L 525 4666 
z
" id="DejaVuSans-37" transform="scale(0.015625)"/>
       </defs>
       <use xlink:href="#DejaVuSans-37"/>
       <use x="63.623047" xlink:href="#DejaVuSans-35"/>
       <use x="127.246094" xlink:href="#DejaVuSans-30"/>
      </g>
     </g>
    </g>
    <g id="ytick_7">
     <g id="line2d_55">
      <g>
       <use style="stroke:#000000;stroke-width:0.8;" x="54" xlink:href="#m3ea26cd076" y="50.730726"/>
      </g>
     </g>
     <g id="text_13">
      <!-- 1000 -->
      <g transform="translate(21.55 54.529945)scale(0.1 -0.1)">
       <use xlink:href="#DejaVuSans-31"/>
       <use x="63.623047" xlink:href="#DejaVuSans-30"/>
       <use x="127.246094" xlink:href="#DejaVuSans-30"/>
       <use x="190.869141" xlink:href="#DejaVuSans-30"/>
      </g>
     </g>
    </g>
    <g id="text_14">
     <!-- Coéfficients normalisés -->
     <g transform="translate(13.453125 201.54875)rotate(-90)scale(0.1 -0.1)">
      <defs>
       <path d="M 4122 4306 
L 4122 3641 
Q 3803 3938 3442 4084 
Q 3081 4231 2675 4231 
Q 1875 4231 1450 3742 
Q 1025 3253 1025 2328 
Q 1025 1406 1450 917 
Q 1875 428 2675 428 
Q 3081 428 3442 575 
Q 3803 722 4122 1019 
L 4122 359 
Q 3791 134 3420 21 
Q 3050 -91 2638 -91 
Q 1578 -91 968 557 
Q 359 1206 359 2328 
Q 359 3453 968 4101 
Q 1578 4750 2638 4750 
Q 3056 4750 3426 4639 
Q 3797 4528 4122 4306 
z
" id="DejaVuSans-43" transform="scale(0.015625)"/>
       <path d="M 1959 3097 
Q 1497 3097 1228 2736 
Q 959 2375 959 1747 
Q 959 1119 1226 758 
Q 1494 397 1959 397 
Q 2419 397 2687 759 
Q 2956 1122 2956 1747 
Q 2956 2369 2687 2733 
Q 2419 3097 1959 3097 
z
M 1959 3584 
Q 2709 3584 3137 3096 
Q 3566 2609 3566 1747 
Q 3566 888 3137 398 
Q 2709 -91 1959 -91 
Q 1206 -91 779 398 
Q 353 888 353 1747 
Q 353 2609 779 3096 
Q 1206 3584 1959 3584 
z
" id="DejaVuSans-6f" transform="scale(0.015625)"/>
       <path d="M 3597 1894 
L 3597 1613 
L 953 1613 
Q 991 1019 1311 708 
Q 1631 397 2203 397 
Q 2534 397 2845 478 
Q 3156 559 3463 722 
L 3463 178 
Q 3153 47 2828 -22 
Q 2503 -91 2169 -91 
Q 1331 -91 842 396 
Q 353 884 353 1716 
Q 353 2575 817 3079 
Q 1281 3584 2069 3584 
Q 2775 3584 3186 3129 
Q 3597 2675 3597 1894 
z
M 3022 2063 
Q 3016 2534 2758 2815 
Q 2500 3097 2075 3097 
Q 1594 3097 1305 2825 
Q 1016 2553 972 2059 
L 3022 2063 
z
M 2469 5119 
L 3091 5119 
L 2072 3944 
L 1594 3944 
L 2469 5119 
z
" id="DejaVuSans-e9" transform="scale(0.015625)"/>
       <path d="M 2375 4863 
L 2375 4384 
L 1825 4384 
Q 1516 4384 1395 4259 
Q 1275 4134 1275 3809 
L 1275 3500 
L 2222 3500 
L 2222 3053 
L 1275 3053 
L 1275 0 
L 697 0 
L 697 3053 
L 147 3053 
L 147 3500 
L 697 3500 
L 697 3744 
Q 697 4328 969 4595 
Q 1241 4863 1831 4863 
L 2375 4863 
z
" id="DejaVuSans-66" transform="scale(0.015625)"/>
       <path d="M 603 3500 
L 1178 3500 
L 1178 0 
L 603 0 
L 603 3500 
z
M 603 4863 
L 1178 4863 
L 1178 4134 
L 603 4134 
L 603 4863 
z
" id="DejaVuSans-69" transform="scale(0.015625)"/>
       <path d="M 3122 3366 
L 3122 2828 
Q 2878 2963 2633 3030 
Q 2388 3097 2138 3097 
Q 1578 3097 1268 2742 
Q 959 2388 959 1747 
Q 959 1106 1268 751 
Q 1578 397 2138 397 
Q 2388 397 2633 464 
Q 2878 531 3122 666 
L 3122 134 
Q 2881 22 2623 -34 
Q 2366 -91 2075 -91 
Q 1284 -91 818 406 
Q 353 903 353 1747 
Q 353 2603 823 3093 
Q 1294 3584 2113 3584 
Q 2378 3584 2631 3529 
Q 2884 3475 3122 3366 
z
" id="DejaVuSans-63" transform="scale(0.015625)"/>
       <path d="M 3597 1894 
L 3597 1613 
L 953 1613 
Q 991 1019 1311 708 
Q 1631 397 2203 397 
Q 2534 397 2845 478 
Q 3156 559 3463 722 
L 3463 178 
Q 3153 47 2828 -22 
Q 2503 -91 2169 -91 
Q 1331 -91 842 396 
Q 353 884 353 1716 
Q 353 2575 817 3079 
Q 1281 3584 2069 3584 
Q 2775 3584 3186 3129 
Q 3597 2675 3597 1894 
z
M 3022 2063 
Q 3016 2534 2758 2815 
Q 2500 3097 2075 3097 
Q 1594 3097 1305 2825 
Q 1016 2553 972 2059 
L 3022 2063 
z
" id="DejaVuSans-65" transform="scale(0.015625)"/>
       <path d="M 3513 2113 
L 3513 0 
L 2938 0 
L 2938 2094 
Q 2938 2591 2744 2837 
Q 2550 3084 2163 3084 
Q 1697 3084 1428 2787 
Q 1159 2491 1159 1978 
L 1159 0 
L 581 0 
L 581 3500 
L 1159 3500 
L 1159 2956 
Q 1366 3272 1645 3428 
Q 1925 3584 2291 3584 
Q 2894 3584 3203 3211 
Q 3513 2838 3513 2113 
z
" id="DejaVuSans-6e" transform="scale(0.015625)"/>
       <path d="M 1172 4494 
L 1172 3500 
L 2356 3500 
L 2356 3053 
L 1172 3053 
L 1172 1153 
Q 1172 725 1289 603 
Q 1406 481 1766 481 
L 2356 481 
L 2356 0 
L 1766 0 
Q 1100 0 847 248 
Q 594 497 594 1153 
L 594 3053 
L 172 3053 
L 172 3500 
L 594 3500 
L 594 4494 
L 1172 4494 
z
" id="DejaVuSans-74" transform="scale(0.015625)"/>
       <path d="M 2834 3397 
L 2834 2853 
Q 2591 2978 2328 3040 
Q 2066 3103 1784 3103 
Q 1356 3103 1142 2972 
Q 928 2841 928 2578 
Q 928 2378 1081 2264 
Q 1234 2150 1697 2047 
L 1894 2003 
Q 2506 1872 2764 1633 
Q 3022 1394 3022 966 
Q 3022 478 2636 193 
Q 2250 -91 1575 -91 
Q 1294 -91 989 -36 
Q 684 19 347 128 
L 347 722 
Q 666 556 975 473 
Q 1284 391 1588 391 
Q 1994 391 2212 530 
Q 2431 669 2431 922 
Q 2431 1156 2273 1281 
Q 2116 1406 1581 1522 
L 1381 1569 
Q 847 1681 609 1914 
Q 372 2147 372 2553 
Q 372 3047 722 3315 
Q 1072 3584 1716 3584 
Q 2034 3584 2315 3537 
Q 2597 3491 2834 3397 
z
" id="DejaVuSans-73" transform="scale(0.015625)"/>
       <path id="DejaVuSans-20" transform="scale(0.015625)"/>
       <path d="M 2631 2963 
Q 2534 3019 2420 3045 
Q 2306 3072 2169 3072 
Q 1681 3072 1420 2755 
Q 1159 2438 1159 1844 
L 1159 0 
L 581 0 
L 581 3500 
L 1159 3500 
L 1159 2956 
Q 1341 3275 1631 3429 
Q 1922 3584 2338 3584 
Q 2397 3584 2469 3576 
Q 2541 3569 2628 3553 
L 2631 2963 
z
" id="DejaVuSans-72" transform="scale(0.015625)"/>
       <path d="M 3328 2828 
Q 3544 3216 3844 3400 
Q 4144 3584 4550 3584 
Q 5097 3584 5394 3201 
Q 5691 2819 5691 2113 
L 5691 0 
L 5113 0 
L 5113 2094 
Q 5113 2597 4934 2840 
Q 4756 3084 4391 3084 
Q 3944 3084 3684 2787 
Q 3425 2491 3425 1978 
L 3425 0 
L 2847 0 
L 2847 2094 
Q 2847 2600 2669 2842 
Q 2491 3084 2119 3084 
Q 1678 3084 1418 2786 
Q 1159 2488 1159 1978 
L 1159 0 
L 581 0 
L 581 3500 
L 1159 3500 
L 1159 2956 
Q 1356 3278 1631 3431 
Q 1906 3584 2284 3584 
Q 2666 3584 2933 3390 
Q 3200 3197 3328 2828 
z
" id="DejaVuSans-6d" transform="scale(0.015625)"/>
      </defs>
      <use xlink:href="#DejaVuSans-43"/>
      <use x="69.824219" xlink:href="#DejaVuSans-6f"/>
      <use x="131.005859" xlink:href="#DejaVuSans-e9"/>
      <use x="192.529297" xlink:href="#DejaVuSans-66"/>
      <use x="227.734375" xlink:href="#DejaVuSans-66"/>
      <use x="262.939453" xlink:href="#DejaVuSans-69"/>
      <use x="290.722656" xlink:href="#DejaVuSans-63"/>
      <use x="345.703125" xlink:href="#DejaVuSans-69"/>
      <use x="373.486328" xlink:href="#DejaVuSans-65"/>
      <use x="435.009766" xlink:href="#DejaVuSans-6e"/>
      <use x="498.388672" xlink:href="#DejaVuSans-74"/>
      <use x="537.597656" xlink:href="#DejaVuSans-73"/>
      <use x="589.697266" xlink:href="#DejaVuSans-20"/>
      <use x="621.484375" xlink:href="#DejaVuSans-6e"/>
      <use x="684.863281" xlink:href="#DejaVuSans-6f"/>
      <use x="746.044922" xlink:href="#DejaVuSans-72"/>
      <use x="785.408203" xlink:href="#DejaVuSans-6d"/>
      <use x="882.820312" xlink:href="#DejaVuSans-61"/>
      <use x="944.099609" xlink:href="#DejaVuSans-6c"/>
      <use x="971.882812" xlink:href="#DejaVuSans-69"/>
      <use x="999.666016" xlink:href="#DejaVuSans-73"/>
      <use x="1051.765625" xlink:href="#DejaVuSans-e9"/>
      <use x="1113.289062" xlink:href="#DejaVuSans-73"/>
     </g>
    </g>
   </g>
   <g id="line2d_56">
    <path clip-path="url(#p253b1557aa)" d="M 69.218182 196.486736 
L 244.374788 179.301291 
L 263.84542 174.076933 
L 275.242 171.516329 
L 283.329945 170.003622 
L 289.604257 169.013971 
L 294.731162 168.323064 
L 299.066141 167.818423 
L 302.821425 167.437357 
L 306.133924 167.142181 
L 309.097129 166.908905 
L 311.777727 166.721559 
L 314.224961 166.56912 
L 316.47623 166.443747 
L 318.560603 166.339721 
L 320.501128 166.252782 
L 322.316385 166.179693 
L 324.021569 166.11796 
L 325.62927 166.065628 
L 327.150035 166.021149 
L 328.592784 165.983282 
L 329.965133 165.951021 
L 331.273635 165.923544 
L 332.523967 165.900174 
L 333.72108 165.880348 
L 334.869323 165.863595 
L 335.972528 165.849519 
L 337.034095 165.837784 
L 338.057054 165.828104 
L 339.044115 165.820234 
L 339.997712 165.813963 
L 340.92004 165.809109 
L 341.813084 165.805514 
L 342.678647 165.803041 
L 343.518371 165.801569 
L 344.333752 165.800993 
L 345.126163 165.801219 
L 345.896863 165.802166 
L 346.647009 165.803761 
L 347.37767 165.80594 
L 348.089832 165.808644 
L 348.784408 165.811823 
L 349.462247 165.81543 
L 350.124136 165.819425 
L 350.770809 165.823771 
L 351.402949 165.828435 
L 352.021196 165.833385 
L 352.626146 165.838596 
L 353.21836 165.844042 
L 353.798363 165.849702 
L 354.366649 165.855556 
L 354.923681 165.861584 
L 355.469896 165.86777 
L 356.005708 165.874099 
L 356.531503 165.880558 
L 357.047652 165.887132 
L 357.554499 165.893811 
L 358.052376 165.900584 
L 358.541595 165.907441 
L 359.02245 165.914374 
L 359.495224 165.921373 
L 359.960183 165.928432 
L 360.417581 165.935542 
L 360.867661 165.942699 
L 361.310654 165.949896 
L 361.746778 165.957127 
L 362.176243 165.964388 
L 362.599251 165.971673 
L 363.015991 165.978979 
L 363.426648 165.986302 
L 363.831396 165.993637 
L 364.230403 166.000981 
L 364.623829 166.008332 
L 365.011829 166.015686 
L 365.39455 166.023041 
L 365.772133 166.030394 
L 366.144716 166.037743 
L 366.512428 166.045085 
L 366.875395 166.052419 
L 367.233739 166.059742 
L 367.587575 166.067054 
L 367.937016 166.074353 
L 368.282169 166.081636 
L 368.623138 166.088903 
L 368.960024 166.096152 
L 369.292923 166.103383 
L 369.621929 166.110594 
L 369.947131 166.117784 
L 370.268616 166.124952 
L 370.586469 166.132098 
L 370.90077 166.13922 
L 371.211599 166.146319 
L 371.51903 166.153392 
L 371.823138 166.16044 
L 372.123993 166.167462 
L 372.421665 166.174458 
L 372.71622 166.181427 
L 373.007722 166.188369 
L 373.296235 166.195282 
L 373.581818 166.202168 
" style="fill:none;stroke:#1f77b4;stroke-linecap:square;stroke-width:1.5;"/>
   </g>
   <g id="line2d_57">
    <path clip-path="url(#p253b1557aa)" d="M 69.218182 114.232972 
L 244.374788 146.436246 
L 263.84542 152.414762 
L 275.242 155.19669 
L 283.329945 156.842515 
L 289.604257 157.951534 
L 294.731162 158.762094 
L 299.066141 159.388042 
L 302.821425 159.890859 
L 306.133924 160.306827 
L 309.097129 160.658847 
L 311.777727 160.962152 
L 314.224961 161.227316 
L 316.47623 161.461935 
L 318.560603 161.67163 
L 320.501128 161.860657 
L 322.316385 162.032313 
L 324.021569 162.189196 
L 325.62927 162.333384 
L 327.150035 162.466564 
L 328.592784 162.590122 
L 329.965133 162.705211 
L 331.273635 162.812795 
L 332.523967 162.913691 
L 333.72108 163.008596 
L 334.869323 163.098109 
L 335.972528 163.182745 
L 337.034095 163.262956 
L 338.057054 163.339134 
L 339.044115 163.411626 
L 339.997712 163.480735 
L 340.92004 163.546735 
L 341.813084 163.609865 
L 342.678647 163.67034 
L 343.518371 163.728356 
L 344.333752 163.784085 
L 345.126163 163.837685 
L 345.896863 163.889298 
L 346.647009 163.939054 
L 347.37767 163.98707 
L 348.089832 164.033453 
L 348.784408 164.078302 
L 349.462247 164.121707 
L 350.124136 164.16375 
L 350.770809 164.204508 
L 351.402949 164.244051 
L 352.021196 164.282444 
L 352.626146 164.319747 
L 353.21836 164.356016 
L 353.798363 164.391302 
L 354.366649 164.425653 
L 354.923681 164.459115 
L 355.469896 164.49173 
L 356.005708 164.523535 
L 356.531503 164.554569 
L 357.047652 164.584864 
L 357.554499 164.614454 
L 358.052376 164.643368 
L 358.541595 164.671634 
L 359.02245 164.69928 
L 359.495224 164.726329 
L 359.960183 164.752807 
L 360.417581 164.778735 
L 360.867661 164.804133 
L 361.310654 164.829023 
L 361.746778 164.853423 
L 362.176243 164.877351 
L 362.599251 164.900823 
L 363.015991 164.923857 
L 363.426648 164.946466 
L 363.831396 164.968666 
L 364.230403 164.99047 
L 364.623829 165.011891 
L 365.011829 165.032942 
L 365.39455 165.053635 
L 365.772133 165.073981 
L 366.144716 165.093991 
L 366.512428 165.113675 
L 366.875395 165.133043 
L 367.233739 165.152105 
L 367.587575 165.170869 
L 367.937016 165.189345 
L 368.282169 165.20754 
L 368.623138 165.225462 
L 368.960024 165.243119 
L 369.292923 165.260519 
L 369.621929 165.277668 
L 369.947131 165.294572 
L 370.268616 165.31124 
L 370.586469 165.327676 
L 370.90077 165.343886 
L 371.211599 165.359877 
L 371.51903 165.375654 
L 371.823138 165.391222 
L 372.123993 165.406586 
L 372.421665 165.421752 
L 372.71622 165.436723 
L 373.007722 165.451506 
L 373.296235 165.466103 
L 373.581818 165.48052 
" style="fill:none;stroke:#ff7f0e;stroke-linecap:square;stroke-width:1.5;"/>
   </g>
   <g id="line2d_58">
    <path clip-path="url(#p253b1557aa)" d="M 69.218182 161.349919 
L 244.374788 171.948337 
L 263.84542 172.801215 
L 275.242 172.899103 
L 283.329945 172.774119 
L 289.604257 172.573562 
L 294.731162 172.350187 
L 299.066141 172.125262 
L 302.821425 171.907731 
L 306.133924 171.701213 
L 309.097129 171.506896 
L 311.777727 171.324825 
L 314.224961 171.154516 
L 316.47623 170.995256 
L 318.560603 170.846254 
L 320.501128 170.706718 
L 322.316385 170.575892 
L 324.021569 170.453071 
L 325.62927 170.337606 
L 327.150035 170.228907 
L 328.592784 170.126439 
L 329.965133 170.029716 
L 331.273635 169.938299 
L 332.523967 169.85179 
L 333.72108 169.769829 
L 334.869323 169.692089 
L 335.972528 169.618273 
L 337.034095 169.548111 
L 338.057054 169.481357 
L 339.044115 169.417785 
L 339.997712 169.357191 
L 340.92004 169.299385 
L 341.813084 169.244195 
L 342.678647 169.191461 
L 343.518371 169.141037 
L 344.333752 169.092788 
L 345.126163 169.046588 
L 345.896863 169.002322 
L 346.647009 168.959884 
L 347.37767 168.919172 
L 348.089832 168.880096 
L 348.784408 168.842568 
L 349.462247 168.80651 
L 350.124136 168.771845 
L 350.770809 168.738504 
L 351.402949 168.706422 
L 352.021196 168.675538 
L 352.626146 168.645793 
L 353.21836 168.617135 
L 353.798363 168.589512 
L 354.366649 168.562878 
L 354.923681 168.537188 
L 355.469896 168.512398 
L 356.005708 168.488471 
L 356.531503 168.465367 
L 357.047652 168.443053 
L 357.554499 168.421493 
L 358.052376 168.400658 
L 358.541595 168.380516 
L 359.02245 168.36104 
L 359.495224 168.342202 
L 359.960183 168.323977 
L 360.417581 168.306341 
L 360.867661 168.289271 
L 361.310654 168.272744 
L 361.746778 168.256741 
L 362.176243 168.241241 
L 362.599251 168.226225 
L 363.015991 168.211676 
L 363.426648 168.197577 
L 363.831396 168.18391 
L 364.230403 168.170661 
L 364.623829 168.157814 
L 365.011829 168.145356 
L 365.39455 168.133273 
L 365.772133 168.121552 
L 366.144716 168.110179 
L 366.512428 168.099145 
L 366.875395 168.088436 
L 367.233739 168.078043 
L 367.587575 168.067954 
L 367.937016 168.05816 
L 368.282169 168.048652 
L 368.623138 168.039419 
L 368.960024 168.030453 
L 369.292923 168.021745 
L 369.621929 168.013288 
L 369.947131 168.005073 
L 370.268616 167.997093 
L 370.586469 167.989341 
L 370.90077 167.98181 
L 371.211599 167.974492 
L 371.51903 167.967382 
L 371.823138 167.960473 
L 372.123993 167.953759 
L 372.421665 167.947235 
L 372.71622 167.940895 
L 373.007722 167.934733 
L 373.296235 167.928744 
L 373.581818 167.922924 
" style="fill:none;stroke:#2ca02c;stroke-linecap:square;stroke-width:1.5;"/>
   </g>
   <g id="line2d_59">
    <path clip-path="url(#p253b1557aa)" d="M 69.218182 192.904065 
L 244.374788 170.593176 
L 263.84542 168.046752 
L 275.242 167.009672 
L 283.329945 166.461996 
L 289.604257 166.131738 
L 294.731162 165.916219 
L 299.066141 165.768296 
L 302.821425 165.66335 
L 306.133924 165.58729 
L 309.097129 165.531479 
L 311.777727 165.490336 
L 314.224961 165.460102 
L 316.47623 165.438154 
L 318.560603 165.422611 
L 320.501128 165.412094 
L 322.316385 165.405567 
L 324.021569 165.402243 
L 325.62927 165.401511 
L 327.150035 165.402894 
L 328.592784 165.406012 
L 329.965133 165.410562 
L 331.273635 165.416299 
L 332.523967 165.423023 
L 333.72108 165.430569 
L 334.869323 165.438801 
L 335.972528 165.447607 
L 337.034095 165.456893 
L 338.057054 165.466579 
L 339.044115 165.476599 
L 339.997712 165.486895 
L 340.92004 165.497419 
L 341.813084 165.50813 
L 342.678647 165.518993 
L 343.518371 165.529978 
L 344.333752 165.541059 
L 345.126163 165.552212 
L 345.896863 165.563419 
L 346.647009 165.574663 
L 347.37767 165.585929 
L 348.089832 165.597204 
L 348.784408 165.608478 
L 349.462247 165.619741 
L 350.124136 165.630984 
L 350.770809 165.6422 
L 351.402949 165.653383 
L 352.021196 165.664528 
L 352.626146 165.675629 
L 353.21836 165.686683 
L 353.798363 165.697686 
L 354.366649 165.708634 
L 354.923681 165.719526 
L 355.469896 165.730358 
L 356.005708 165.741129 
L 356.531503 165.751838 
L 357.047652 165.762482 
L 357.554499 165.773061 
L 358.052376 165.783573 
L 358.541595 165.794018 
L 359.02245 165.804395 
L 359.495224 165.814704 
L 359.960183 165.824945 
L 360.417581 165.835116 
L 360.867661 165.845219 
L 361.310654 165.855252 
L 361.746778 165.865216 
L 362.176243 165.875111 
L 362.599251 165.884937 
L 363.015991 165.894695 
L 363.426648 165.904384 
L 363.831396 165.914005 
L 364.230403 165.923558 
L 364.623829 165.933044 
L 365.011829 165.942462 
L 365.39455 165.951814 
L 365.772133 165.9611 
L 366.144716 165.970321 
L 366.512428 165.979476 
L 366.875395 165.988566 
L 367.233739 165.997592 
L 367.587575 166.006554 
L 367.937016 166.015454 
L 368.282169 166.02429 
L 368.623138 166.033065 
L 368.960024 166.041778 
L 369.292923 166.05043 
L 369.621929 166.059021 
L 369.947131 166.067553 
L 370.268616 166.076025 
L 370.586469 166.084439 
L 370.90077 166.092794 
L 371.211599 166.101092 
L 371.51903 166.109332 
L 371.823138 166.117516 
L 372.123993 166.125644 
L 372.421665 166.133716 
L 372.71622 166.141733 
L 373.007722 166.149696 
L 373.296235 166.157606 
L 373.581818 166.165461 
" style="fill:none;stroke:#d62728;stroke-linecap:square;stroke-width:1.5;"/>
   </g>
   <g id="line2d_60">
    <path clip-path="url(#p253b1557aa)" d="M 69.218182 179.904714 
L 244.374788 170.201675 
L 263.84542 168.810389 
L 275.242 168.172028 
L 283.329945 167.810612 
L 289.604257 167.578102 
L 294.731162 167.414767 
L 299.066141 167.29248 
L 302.821425 167.196485 
L 306.133924 167.118385 
L 309.097129 167.053083 
L 311.777727 166.997315 
L 314.224961 166.9489 
L 316.47623 166.906319 
L 318.560603 166.868484 
L 320.501128 166.834588 
L 322.316385 166.80402 
L 324.021569 166.776306 
L 325.62927 166.751071 
L 327.150035 166.728011 
L 328.592784 166.706878 
L 329.965133 166.687468 
L 331.273635 166.669605 
L 332.523967 166.653144 
L 333.72108 166.637957 
L 334.869323 166.623933 
L 335.972528 166.610978 
L 337.034095 166.599006 
L 338.057054 166.587942 
L 339.044115 166.577718 
L 339.997712 166.568276 
L 340.92004 166.559559 
L 341.813084 166.551521 
L 342.678647 166.544115 
L 343.518371 166.537302 
L 344.333752 166.531044 
L 345.126163 166.525306 
L 345.896863 166.520059 
L 346.647009 166.515273 
L 347.37767 166.51092 
L 348.089832 166.506977 
L 348.784408 166.50342 
L 349.462247 166.500228 
L 350.124136 166.497381 
L 350.770809 166.494861 
L 351.402949 166.49265 
L 352.021196 166.490731 
L 352.626146 166.489091 
L 353.21836 166.487713 
L 353.798363 166.486586 
L 354.366649 166.485696 
L 354.923681 166.485031 
L 355.469896 166.484581 
L 356.005708 166.484335 
L 356.531503 166.484282 
L 357.047652 166.484414 
L 357.554499 166.484722 
L 358.052376 166.485197 
L 358.541595 166.485831 
L 359.02245 166.486616 
L 359.495224 166.487547 
L 359.960183 166.488615 
L 360.417581 166.489814 
L 360.867661 166.491139 
L 361.310654 166.492583 
L 361.746778 166.494141 
L 362.176243 166.495807 
L 362.599251 166.497578 
L 363.015991 166.499447 
L 363.426648 166.50141 
L 363.831396 166.503464 
L 364.230403 166.505603 
L 364.623829 166.507825 
L 365.011829 166.510124 
L 365.39455 166.512498 
L 365.772133 166.514944 
L 366.144716 166.517457 
L 366.512428 166.520035 
L 366.875395 166.522675 
L 367.233739 166.525374 
L 367.587575 166.528129 
L 367.937016 166.530938 
L 368.282169 166.533797 
L 368.623138 166.536706 
L 368.960024 166.539661 
L 369.292923 166.542659 
L 369.621929 166.5457 
L 369.947131 166.548781 
L 370.268616 166.5519 
L 370.586469 166.555056 
L 370.90077 166.558245 
L 371.211599 166.561468 
L 371.51903 166.564721 
L 371.823138 166.568004 
L 372.123993 166.571315 
L 372.421665 166.574653 
L 372.71622 166.578015 
L 373.007722 166.581401 
L 373.296235 166.58481 
L 373.581818 166.58824 
" style="fill:none;stroke:#9467bd;stroke-linecap:square;stroke-width:1.5;"/>
   </g>
   <g id="line2d_61">
    <path clip-path="url(#p253b1557aa)" d="M 69.218182 145.477157 
L 244.374788 155.222522 
L 263.84542 157.970923 
L 275.242 159.427989 
L 283.329945 160.338177 
L 289.604257 160.963205 
L 294.731162 161.420817 
L 299.066141 161.772032 
L 302.821425 162.051604 
L 306.133924 162.280739 
L 309.097129 162.473073 
L 311.777727 162.637753 
L 314.224961 162.781131 
L 316.47623 162.907743 
L 318.560603 163.020912 
L 320.501128 163.123126 
L 322.316385 163.21628 
L 324.021569 163.301843 
L 325.62927 163.380972 
L 327.150035 163.454589 
L 328.592784 163.52344 
L 329.965133 163.588131 
L 331.273635 163.649165 
L 332.523967 163.706958 
L 333.72108 163.761862 
L 334.869323 163.814173 
L 335.972528 163.864145 
L 337.034095 163.911995 
L 338.057054 163.957911 
L 339.044115 164.002057 
L 339.997712 164.044576 
L 340.92004 164.085595 
L 341.813084 164.125225 
L 342.678647 164.163565 
L 343.518371 164.200702 
L 344.333752 164.236718 
L 345.126163 164.271681 
L 345.896863 164.305658 
L 346.647009 164.338706 
L 347.37767 164.370879 
L 348.089832 164.402223 
L 348.784408 164.432785 
L 349.462247 164.462604 
L 350.124136 164.491718 
L 350.770809 164.520161 
L 351.402949 164.547965 
L 352.021196 164.57516 
L 352.626146 164.601772 
L 353.21836 164.627827 
L 353.798363 164.653349 
L 354.366649 164.67836 
L 354.923681 164.702881 
L 355.469896 164.726931 
L 356.005708 164.750529 
L 356.531503 164.773691 
L 357.047652 164.796433 
L 357.554499 164.818771 
L 358.052376 164.840719 
L 358.541595 164.862291 
L 359.02245 164.8835 
L 359.495224 164.904356 
L 359.960183 164.924873 
L 360.417581 164.945061 
L 360.867661 164.96493 
L 361.310654 164.984491 
L 361.746778 165.003751 
L 362.176243 165.022722 
L 362.599251 165.04141 
L 363.015991 165.059825 
L 363.426648 165.077974 
L 363.831396 165.095864 
L 364.230403 165.113503 
L 364.623829 165.130897 
L 365.011829 165.148053 
L 365.39455 165.164977 
L 365.772133 165.181676 
L 366.144716 165.198154 
L 366.512428 165.214418 
L 366.875395 165.230473 
L 367.233739 165.246323 
L 367.587575 165.261975 
L 367.937016 165.277432 
L 368.282169 165.292699 
L 368.623138 165.307781 
L 368.960024 165.322681 
L 369.292923 165.337405 
L 369.621929 165.351955 
L 369.947131 165.366336 
L 370.268616 165.380552 
L 370.586469 165.394605 
L 370.90077 165.4085 
L 371.211599 165.42224 
L 371.51903 165.435827 
L 371.823138 165.449266 
L 372.123993 165.462559 
L 372.421665 165.475708 
L 372.71622 165.488718 
L 373.007722 165.501591 
L 373.296235 165.514328 
L 373.581818 165.526934 
" style="fill:none;stroke:#8c564b;stroke-linecap:square;stroke-width:1.5;"/>
   </g>
   <g id="line2d_62">
    <path clip-path="url(#p253b1557aa)" d="M 69.218182 165.634994 
L 244.374788 171.982859 
L 263.84542 171.512428 
L 275.242 170.856701 
L 283.329945 170.286526 
L 289.604257 169.813747 
L 294.731162 169.421941 
L 299.066141 169.094299 
L 302.821425 168.817357 
L 306.133924 168.580835 
L 309.097129 168.376917 
L 311.777727 168.199621 
L 314.224961 168.044314 
L 316.47623 167.907359 
L 318.560603 167.785873 
L 320.501128 167.677538 
L 322.316385 167.580473 
L 324.021569 167.493137 
L 325.62927 167.414255 
L 327.150035 167.342762 
L 328.592784 167.277765 
L 329.965133 167.218507 
L 331.273635 167.164343 
L 332.523967 167.11472 
L 333.72108 167.069163 
L 334.869323 167.027257 
L 335.972528 166.988644 
L 337.034095 166.953008 
L 338.057054 166.920075 
L 339.044115 166.889599 
L 339.997712 166.861366 
L 340.92004 166.835183 
L 341.813084 166.810879 
L 342.678647 166.788303 
L 343.518371 166.767316 
L 344.333752 166.747795 
L 345.126163 166.72963 
L 345.896863 166.712719 
L 346.647009 166.696971 
L 347.37767 166.682304 
L 348.089832 166.668642 
L 348.784408 166.655917 
L 349.462247 166.644065 
L 350.124136 166.63303 
L 350.770809 166.622757 
L 351.402949 166.613198 
L 352.021196 166.60431 
L 352.626146 166.59605 
L 353.21836 166.58838 
L 353.798363 166.581265 
L 354.366649 166.574673 
L 354.923681 166.568573 
L 355.469896 166.562936 
L 356.005708 166.557738 
L 356.531503 166.552953 
L 357.047652 166.548558 
L 357.554499 166.544534 
L 358.052376 166.540858 
L 358.541595 166.537514 
L 359.02245 166.534483 
L 359.495224 166.53175 
L 359.960183 166.529299 
L 360.417581 166.527116 
L 360.867661 166.525188 
L 361.310654 166.523501 
L 361.746778 166.522044 
L 362.176243 166.520805 
L 362.599251 166.519775 
L 363.015991 166.518942 
L 363.426648 166.518298 
L 363.831396 166.517833 
L 364.230403 166.517539 
L 364.623829 166.517409 
L 365.011829 166.517434 
L 365.39455 166.517608 
L 365.772133 166.517923 
L 366.144716 166.518374 
L 366.512428 166.518953 
L 366.875395 166.519656 
L 367.233739 166.520476 
L 367.587575 166.521409 
L 367.937016 166.522449 
L 368.282169 166.523592 
L 368.623138 166.524834 
L 368.960024 166.526169 
L 369.292923 166.527594 
L 369.621929 166.529104 
L 369.947131 166.530697 
L 370.268616 166.532368 
L 370.586469 166.534115 
L 370.90077 166.535933 
L 371.211599 166.53782 
L 371.51903 166.539773 
L 371.823138 166.541788 
L 372.123993 166.543864 
L 372.421665 166.545998 
L 372.71622 166.548186 
L 373.007722 166.550428 
L 373.296235 166.55272 
L 373.581818 166.55506 
" style="fill:none;stroke:#e377c2;stroke-linecap:square;stroke-width:1.5;"/>
   </g>
   <g id="line2d_63">
    <path clip-path="url(#p253b1557aa)" d="M 69.218182 188.250181 
L 244.374788 170.476537 
L 263.84542 166.92462 
L 275.242 165.817474 
L 283.329945 165.327645 
L 289.604257 165.069122 
L 294.731162 164.917644 
L 299.066141 164.822906 
L 302.821425 164.761258 
L 306.133924 164.720326 
L 309.097129 164.69309 
L 311.777727 164.675305 
L 314.224961 164.66427 
L 316.47623 164.658192 
L 318.560603 164.65584 
L 320.501128 164.656339 
L 322.316385 164.659058 
L 324.021569 164.663525 
L 325.62927 164.669385 
L 327.150035 164.676365 
L 328.592784 164.684251 
L 329.965133 164.692877 
L 331.273635 164.702106 
L 332.523967 164.711832 
L 333.72108 164.721965 
L 334.869323 164.732433 
L 335.972528 164.743177 
L 337.034095 164.754146 
L 338.057054 164.7653 
L 339.044115 164.776603 
L 339.997712 164.788025 
L 340.92004 164.799542 
L 341.813084 164.811132 
L 342.678647 164.822777 
L 343.518371 164.83446 
L 344.333752 164.846169 
L 345.126163 164.857893 
L 345.896863 164.86962 
L 346.647009 164.881342 
L 347.37767 164.893052 
L 348.089832 164.904743 
L 348.784408 164.916409 
L 349.462247 164.928045 
L 350.124136 164.939648 
L 350.770809 164.951213 
L 351.402949 164.962737 
L 352.021196 164.974217 
L 352.626146 164.98565 
L 353.21836 164.997036 
L 353.798363 165.008371 
L 354.366649 165.019654 
L 354.923681 165.030884 
L 355.469896 165.042059 
L 356.005708 165.053179 
L 356.531503 165.064243 
L 357.047652 165.075249 
L 357.554499 165.086198 
L 358.052376 165.097089 
L 358.541595 165.107922 
L 359.02245 165.118696 
L 359.495224 165.129411 
L 359.960183 165.140067 
L 360.417581 165.150664 
L 360.867661 165.161202 
L 361.310654 165.17168 
L 361.746778 165.1821 
L 362.176243 165.19246 
L 362.599251 165.202762 
L 363.015991 165.213005 
L 363.426648 165.223189 
L 363.831396 165.233316 
L 364.230403 165.243384 
L 364.623829 165.253394 
L 365.011829 165.263348 
L 365.39455 165.273244 
L 365.772133 165.283083 
L 366.144716 165.292866 
L 366.512428 165.302592 
L 366.875395 165.312263 
L 367.233739 165.321878 
L 367.587575 165.331438 
L 367.937016 165.340943 
L 368.282169 165.350394 
L 368.623138 165.359791 
L 368.960024 165.369134 
L 369.292923 165.378424 
L 369.621929 165.387661 
L 369.947131 165.396846 
L 370.268616 165.405978 
L 370.586469 165.415059 
L 370.90077 165.424089 
L 371.211599 165.433067 
L 371.51903 165.441995 
L 371.823138 165.450872 
L 372.123993 165.4597 
L 372.421665 165.468479 
L 372.71622 165.477208 
L 373.007722 165.485888 
L 373.296235 165.494521 
L 373.581818 165.503105 
" style="fill:none;stroke:#7f7f7f;stroke-linecap:square;stroke-width:1.5;"/>
   </g>
   <g id="line2d_64">
    <path clip-path="url(#p253b1557aa)" d="M 69.218182 242.116364 
L 244.374788 156.42612 
L 263.84542 157.842972 
L 275.242 158.978363 
L 283.329945 159.794685 
L 289.604257 160.400692 
L 294.731162 160.867628 
L 299.066141 161.239082 
L 302.821425 161.542478 
L 306.133924 161.79575 
L 309.097129 162.011059 
L 311.777727 162.196926 
L 314.224961 162.359487 
L 316.47623 162.503273 
L 318.560603 162.6317 
L 320.501128 162.747391 
L 322.316385 162.852397 
L 324.021569 162.948341 
L 325.62927 163.036529 
L 327.150035 163.118019 
L 328.592784 163.193683 
L 329.965133 163.264242 
L 331.273635 163.3303 
L 332.523967 163.392367 
L 333.72108 163.450874 
L 334.869323 163.506192 
L 335.972528 163.55864 
L 337.034095 163.608493 
L 338.057054 163.655991 
L 339.044115 163.701343 
L 339.997712 163.744736 
L 340.92004 163.786331 
L 341.813084 163.826273 
L 342.678647 163.86469 
L 343.518371 163.901697 
L 344.333752 163.937398 
L 345.126163 163.971883 
L 345.896863 164.005237 
L 346.647009 164.037536 
L 347.37767 164.068846 
L 348.089832 164.099231 
L 348.784408 164.128747 
L 349.462247 164.157446 
L 350.124136 164.185375 
L 350.770809 164.212578 
L 351.402949 164.239094 
L 352.021196 164.264961 
L 352.626146 164.290212 
L 353.21836 164.314878 
L 353.798363 164.33899 
L 354.366649 164.362574 
L 354.923681 164.385654 
L 355.469896 164.408255 
L 356.005708 164.430397 
L 356.531503 164.452102 
L 357.047652 164.473389 
L 357.554499 164.494274 
L 358.052376 164.514775 
L 358.541595 164.534907 
L 359.02245 164.554685 
L 359.495224 164.574123 
L 359.960183 164.593233 
L 360.417581 164.612028 
L 360.867661 164.63052 
L 361.310654 164.648719 
L 361.746778 164.666636 
L 362.176243 164.68428 
L 362.599251 164.70166 
L 363.015991 164.718786 
L 363.426648 164.735666 
L 363.831396 164.752307 
L 364.230403 164.768717 
L 364.623829 164.784903 
L 365.011829 164.800872 
L 365.39455 164.81663 
L 365.772133 164.832184 
L 366.144716 164.847539 
L 366.512428 164.862702 
L 366.875395 164.877676 
L 367.233739 164.892469 
L 367.587575 164.907083 
L 367.937016 164.921525 
L 368.282169 164.935798 
L 368.623138 164.949907 
L 368.960024 164.963856 
L 369.292923 164.977649 
L 369.621929 164.991289 
L 369.947131 165.004782 
L 370.268616 165.018129 
L 370.586469 165.031334 
L 370.90077 165.044401 
L 371.211599 165.057332 
L 371.51903 165.070132 
L 371.823138 165.082802 
L 372.123993 165.095345 
L 372.421665 165.107764 
L 372.71622 165.120063 
L 373.007722 165.132242 
L 373.296235 165.144305 
L 373.581818 165.156254 
" style="fill:none;stroke:#bcbd22;stroke-linecap:square;stroke-width:1.5;"/>
   </g>
   <g id="line2d_65">
    <path clip-path="url(#p253b1557aa)" d="M 69.218182 188.147523 
L 244.374788 160.299281 
L 263.84542 161.003872 
L 275.242 161.562194 
L 283.329945 161.997348 
L 289.604257 162.347487 
L 294.731162 162.635961 
L 299.066141 162.877875 
L 302.821425 163.083623 
L 306.133924 163.260677 
L 309.097129 163.414585 
L 311.777727 163.549565 
L 314.224961 163.668884 
L 316.47623 163.775117 
L 318.560603 163.870317 
L 320.501128 163.95614 
L 322.316385 164.033939 
L 324.021569 164.104824 
L 325.62927 164.169719 
L 327.150035 164.229394 
L 328.592784 164.284497 
L 329.965133 164.335579 
L 331.273635 164.383106 
L 332.523967 164.427479 
L 333.72108 164.469042 
L 334.869323 164.508094 
L 335.972528 164.544893 
L 337.034095 164.579664 
L 338.057054 164.612604 
L 339.044115 164.643886 
L 339.997712 164.673664 
L 340.92004 164.702071 
L 341.813084 164.729228 
L 342.678647 164.755241 
L 343.518371 164.780204 
L 344.333752 164.804203 
L 345.126163 164.827313 
L 345.896863 164.849603 
L 346.647009 164.871134 
L 347.37767 164.891962 
L 348.089832 164.912136 
L 348.784408 164.931703 
L 349.462247 164.950704 
L 350.124136 164.969176 
L 350.770809 164.987153 
L 351.402949 165.004668 
L 352.021196 165.021748 
L 352.626146 165.038419 
L 353.21836 165.054706 
L 353.798363 165.070631 
L 354.366649 165.086214 
L 354.923681 165.101474 
L 355.469896 165.116429 
L 356.005708 165.131093 
L 356.531503 165.145483 
L 357.047652 165.159611 
L 357.554499 165.173491 
L 358.052376 165.187134 
L 358.541595 165.200551 
L 359.02245 165.213753 
L 359.495224 165.226749 
L 359.960183 165.239548 
L 360.417581 165.252158 
L 360.867661 165.264588 
L 361.310654 165.276843 
L 361.746778 165.288932 
L 362.176243 165.300861 
L 362.599251 165.312636 
L 363.015991 165.324261 
L 363.426648 165.335744 
L 363.831396 165.347088 
L 364.230403 165.358298 
L 364.623829 165.36938 
L 365.011829 165.380336 
L 365.39455 165.391172 
L 365.772133 165.40189 
L 366.144716 165.412495 
L 366.512428 165.42299 
L 366.875395 165.433378 
L 367.233739 165.443662 
L 367.587575 165.453845 
L 367.937016 165.463929 
L 368.282169 165.473918 
L 368.623138 165.483814 
L 368.960024 165.493619 
L 369.292923 165.503336 
L 369.621929 165.512966 
L 369.947131 165.522511 
L 370.268616 165.531975 
L 370.586469 165.541358 
L 370.90077 165.550662 
L 371.211599 165.55989 
L 371.51903 165.569042 
L 371.823138 165.578121 
L 372.123993 165.587127 
L 372.421665 165.596063 
L 372.71622 165.60493 
L 373.007722 165.613728 
L 373.296235 165.62246 
L 373.581818 165.631127 
" style="fill:none;stroke:#17becf;stroke-linecap:square;stroke-width:1.5;"/>
   </g>
   <g id="line2d_66">
    <path clip-path="url(#p253b1557aa)" d="M 69.218182 44.443636 
L 244.374788 147.539216 
L 263.84542 154.425668 
L 275.242 157.166764 
L 283.329945 158.668551 
L 289.604257 159.627911 
L 294.731162 160.299552 
L 299.066141 160.799488 
L 302.821425 161.188387 
L 306.133924 161.50116 
L 309.097129 161.759359 
L 311.777727 161.977032 
L 314.224961 162.163738 
L 316.47623 162.326215 
L 318.560603 162.469354 
L 320.501128 162.596791 
L 322.316385 162.711292 
L 324.021569 162.814996 
L 325.62927 162.909586 
L 327.150035 162.996406 
L 328.592784 163.07654 
L 329.965133 163.150876 
L 331.273635 163.220146 
L 332.523967 163.28496 
L 333.72108 163.345832 
L 334.869323 163.403195 
L 335.972528 163.45742 
L 337.034095 163.508826 
L 338.057054 163.557687 
L 339.044115 163.604241 
L 339.997712 163.648698 
L 340.92004 163.691239 
L 341.813084 163.732026 
L 342.678647 163.771202 
L 343.518371 163.808892 
L 344.333752 163.84521 
L 345.126163 163.880257 
L 345.896863 163.914124 
L 346.647009 163.946892 
L 347.37767 163.978635 
L 348.089832 164.009419 
L 348.784408 164.039306 
L 349.462247 164.068351 
L 350.124136 164.096604 
L 350.770809 164.124111 
L 351.402949 164.150914 
L 352.021196 164.177053 
L 352.626146 164.202564 
L 353.21836 164.227478 
L 353.798363 164.251827 
L 354.366649 164.275638 
L 354.923681 164.298939 
L 355.469896 164.321752 
L 356.005708 164.344102 
L 356.531503 164.366008 
L 357.047652 164.387491 
L 357.554499 164.408568 
L 358.052376 164.429257 
L 358.541595 164.449575 
L 359.02245 164.469535 
L 359.495224 164.489152 
L 359.960183 164.50844 
L 360.417581 164.52741 
L 360.867661 164.546076 
L 361.310654 164.564447 
L 361.746778 164.582534 
L 362.176243 164.600348 
L 362.599251 164.617897 
L 363.015991 164.635191 
L 363.426648 164.652238 
L 363.831396 164.669045 
L 364.230403 164.685621 
L 364.623829 164.701973 
L 365.011829 164.718107 
L 365.39455 164.73403 
L 365.772133 164.749748 
L 366.144716 164.765268 
L 366.512428 164.780594 
L 366.875395 164.795733 
L 367.233739 164.810689 
L 367.587575 164.825467 
L 367.937016 164.840072 
L 368.282169 164.854509 
L 368.623138 164.868781 
L 368.960024 164.882893 
L 369.292923 164.89685 
L 369.621929 164.910654 
L 369.947131 164.924309 
L 370.268616 164.937819 
L 370.586469 164.951188 
L 370.90077 164.964418 
L 371.211599 164.977513 
L 371.51903 164.990475 
L 371.823138 165.003308 
L 372.123993 165.016015 
L 372.421665 165.028597 
L 372.71622 165.041058 
L 373.007722 165.0534 
L 373.296235 165.065626 
L 373.581818 165.077738 
" style="fill:none;stroke:#1f77b4;stroke-linecap:square;stroke-width:1.5;"/>
   </g>
   <g id="line2d_67">
    <path clip-path="url(#p253b1557aa)" d="M 69.218182 109.678721 
L 244.374788 157.413926 
L 263.84542 158.549828 
L 275.242 159.380807 
L 283.329945 160.024842 
L 289.604257 160.535025 
L 294.731162 160.94825 
L 299.066141 161.289736 
L 302.821425 161.576892 
L 306.133924 161.822002 
L 309.097129 162.033937 
L 311.777727 162.219249 
L 314.224961 162.382877 
L 316.47623 162.528613 
L 318.560603 162.659414 
L 320.501128 162.777622 
L 322.316385 162.885111 
L 324.021569 162.983403 
L 325.62927 163.073745 
L 327.150035 163.157168 
L 328.592784 163.23453 
L 329.965133 163.306554 
L 331.273635 163.373852 
L 332.523967 163.436947 
L 333.72108 163.496283 
L 334.869323 163.552248 
L 335.972528 163.605174 
L 337.034095 163.655353 
L 338.057054 163.70304 
L 339.044115 163.748457 
L 339.997712 163.791802 
L 340.92004 163.83325 
L 341.813084 163.872956 
L 342.678647 163.911058 
L 343.518371 163.947679 
L 344.333752 163.982931 
L 345.126163 164.016914 
L 345.896863 164.049717 
L 346.647009 164.081423 
L 347.37767 164.112104 
L 348.089832 164.141827 
L 348.784408 164.170655 
L 349.462247 164.198642 
L 350.124136 164.22584 
L 350.770809 164.252295 
L 351.402949 164.27805 
L 352.021196 164.303144 
L 352.626146 164.327614 
L 353.21836 164.351493 
L 353.798363 164.374813 
L 354.366649 164.397602 
L 354.923681 164.419886 
L 355.469896 164.44169 
L 356.005708 164.463038 
L 356.531503 164.48395 
L 357.047652 164.504447 
L 357.554499 164.524546 
L 358.052376 164.544266 
L 358.541595 164.563623 
L 359.02245 164.582632 
L 359.495224 164.601307 
L 359.960183 164.619662 
L 360.417581 164.637709 
L 360.867661 164.655461 
L 361.310654 164.672927 
L 361.746778 164.69012 
L 362.176243 164.707049 
L 362.599251 164.723723 
L 363.015991 164.740151 
L 363.426648 164.756342 
L 363.831396 164.772303 
L 364.230403 164.788042 
L 364.623829 164.803567 
L 365.011829 164.818884 
L 365.39455 164.833999 
L 365.772133 164.84892 
L 366.144716 164.86365 
L 366.512428 164.878197 
L 366.875395 164.892566 
L 367.233739 164.906761 
L 367.587575 164.920787 
L 367.937016 164.93465 
L 368.282169 164.948353 
L 368.623138 164.9619 
L 368.960024 164.975297 
L 369.292923 164.988545 
L 369.621929 165.001651 
L 369.947131 165.014616 
L 370.268616 165.027444 
L 370.586469 165.040139 
L 370.90077 165.052703 
L 371.211599 165.065141 
L 371.51903 165.077454 
L 371.823138 165.089645 
L 372.123993 165.101717 
L 372.421665 165.113674 
L 372.71622 165.125516 
L 373.007722 165.137247 
L 373.296235 165.148869 
L 373.581818 165.160384 
" style="fill:none;stroke:#ff7f0e;stroke-linecap:square;stroke-width:1.5;"/>
   </g>
   <g id="line2d_68">
    <path clip-path="url(#p253b1557aa)" d="M 69.218182 220.708033 
L 244.374788 188.885968 
L 263.84542 182.232887 
L 275.242 178.52667 
L 283.329945 176.120382 
L 289.604257 174.424188 
L 294.731162 173.162666 
L 299.066141 172.187795 
L 302.821425 171.412366 
L 306.133924 170.781473 
L 309.097129 170.258751 
L 311.777727 169.819125 
L 314.224961 169.444728 
L 316.47623 169.122481 
L 318.560603 168.842579 
L 320.501128 168.597529 
L 322.316385 168.381505 
L 324.021569 168.189906 
L 325.62927 168.01905 
L 327.150035 167.865958 
L 328.592784 167.728191 
L 329.965133 167.603732 
L 331.273635 167.490902 
L 332.523967 167.388291 
L 333.72108 167.294704 
L 334.869323 167.209123 
L 335.972528 167.130677 
L 337.034095 167.058615 
L 338.057054 166.992284 
L 339.044115 166.931118 
L 339.997712 166.874622 
L 340.92004 166.822358 
L 341.813084 166.773943 
L 342.678647 166.729037 
L 343.518371 166.687337 
L 344.333752 166.648574 
L 345.126163 166.612507 
L 345.896863 166.578921 
L 346.647009 166.547621 
L 347.37767 166.518431 
L 348.089832 166.491195 
L 348.784408 166.465768 
L 349.462247 166.44202 
L 350.124136 166.419832 
L 350.770809 166.399098 
L 351.402949 166.379717 
L 352.021196 166.3616 
L 352.626146 166.344664 
L 353.21836 166.328832 
L 353.798363 166.314034 
L 354.366649 166.300207 
L 354.923681 166.28729 
L 355.469896 166.275228 
L 356.005708 166.26397 
L 356.531503 166.25347 
L 357.047652 166.243682 
L 357.554499 166.234567 
L 358.052376 166.226086 
L 358.541595 166.218204 
L 359.02245 166.210888 
L 359.495224 166.204108 
L 359.960183 166.197834 
L 360.417581 166.19204 
L 360.867661 166.1867 
L 361.310654 166.181791 
L 361.746778 166.177291 
L 362.176243 166.173179 
L 362.599251 166.169435 
L 363.015991 166.166041 
L 363.426648 166.16298 
L 363.831396 166.160236 
L 364.230403 166.157792 
L 364.623829 166.155635 
L 365.011829 166.153751 
L 365.39455 166.152127 
L 365.772133 166.150751 
L 366.144716 166.149611 
L 366.512428 166.148696 
L 366.875395 166.147995 
L 367.233739 166.1475 
L 367.587575 166.147201 
L 367.937016 166.147088 
L 368.282169 166.147154 
L 368.623138 166.14739 
L 368.960024 166.147789 
L 369.292923 166.148344 
L 369.621929 166.149048 
L 369.947131 166.149893 
L 370.268616 166.150875 
L 370.586469 166.151987 
L 370.90077 166.153224 
L 371.211599 166.154579 
L 371.51903 166.156049 
L 371.823138 166.157628 
L 372.123993 166.159311 
L 372.421665 166.161094 
L 372.71622 166.162972 
L 373.007722 166.164942 
L 373.296235 166.167 
L 373.581818 166.169142 
" style="fill:none;stroke:#2ca02c;stroke-linecap:square;stroke-width:1.5;"/>
   </g>
   <g id="line2d_69">
    <path clip-path="url(#p253b1557aa)" d="M 69.218182 161.253234 
L 244.374788 161.018671 
L 263.84542 161.166172 
L 275.242 161.313529 
L 283.329945 161.455902 
L 289.604257 161.592866 
L 294.731162 161.724601 
L 299.066141 161.851362 
L 302.821425 161.973396 
L 306.133924 162.090934 
L 309.097129 162.20419 
L 311.777727 162.313367 
L 314.224961 162.418657 
L 316.47623 162.520244 
L 318.560603 162.618303 
L 320.501128 162.712998 
L 322.316385 162.80449 
L 324.021569 162.892928 
L 325.62927 162.978455 
L 327.150035 163.061207 
L 328.592784 163.141311 
L 329.965133 163.218889 
L 331.273635 163.294057 
L 332.523967 163.366922 
L 333.72108 163.437588 
L 334.869323 163.506153 
L 335.972528 163.572707 
L 337.034095 163.637338 
L 338.057054 163.700128 
L 339.044115 163.761156 
L 339.997712 163.820495 
L 340.92004 163.878215 
L 341.813084 163.934383 
L 342.678647 163.98906 
L 343.518371 164.042307 
L 344.333752 164.09418 
L 345.126163 164.144733 
L 345.896863 164.194016 
L 346.647009 164.242078 
L 347.37767 164.288965 
L 348.089832 164.334721 
L 348.784408 164.379387 
L 349.462247 164.423003 
L 350.124136 164.465606 
L 350.770809 164.507233 
L 351.402949 164.547918 
L 352.021196 164.587694 
L 352.626146 164.626591 
L 353.21836 164.664639 
L 353.798363 164.701868 
L 354.366649 164.738303 
L 354.923681 164.773972 
L 355.469896 164.808899 
L 356.005708 164.843108 
L 356.531503 164.876622 
L 357.047652 164.909462 
L 357.554499 164.94165 
L 358.052376 164.973205 
L 358.541595 165.004147 
L 359.02245 165.034494 
L 359.495224 165.064264 
L 359.960183 165.093475 
L 360.417581 165.122141 
L 360.867661 165.15028 
L 361.310654 165.177905 
L 361.746778 165.205033 
L 362.176243 165.231676 
L 362.599251 165.257848 
L 363.015991 165.283563 
L 363.426648 165.308832 
L 363.831396 165.333668 
L 364.230403 165.358081 
L 364.623829 165.382084 
L 365.011829 165.405688 
L 365.39455 165.428902 
L 365.772133 165.451736 
L 366.144716 165.474201 
L 366.512428 165.496305 
L 366.875395 165.518058 
L 367.233739 165.539468 
L 367.587575 165.560544 
L 367.937016 165.581294 
L 368.282169 165.601726 
L 368.623138 165.621847 
L 368.960024 165.641666 
L 369.292923 165.661188 
L 369.621929 165.680421 
L 369.947131 165.699372 
L 370.268616 165.718047 
L 370.586469 165.736452 
L 370.90077 165.754594 
L 371.211599 165.772479 
L 371.51903 165.790112 
L 371.823138 165.807498 
L 372.123993 165.824644 
L 372.421665 165.841553 
L 372.71622 165.858233 
L 373.007722 165.874687 
L 373.296235 165.89092 
L 373.581818 165.906936 
" style="fill:none;stroke:#d62728;stroke-linecap:square;stroke-width:1.5;"/>
   </g>
   <g id="line2d_70">
    <path clip-path="url(#p253b1557aa)" d="M 69.218182 168.617729 
L 244.374788 169.307939 
L 263.84542 169.611487 
L 275.242 169.692779 
L 283.329945 169.695872 
L 289.604257 169.665735 
L 294.731162 169.620806 
L 299.066141 169.569692 
L 302.821425 169.516705 
L 306.133924 169.464079 
L 309.097129 169.412975 
L 311.777727 169.363974 
L 314.224961 169.317335 
L 316.47623 169.273136 
L 318.560603 169.23135 
L 320.501128 169.191895 
L 322.316385 169.154662 
L 324.021569 169.119523 
L 325.62927 169.086352 
L 327.150035 169.055021 
L 328.592784 169.025406 
L 329.965133 168.997394 
L 331.273635 168.970874 
L 332.523967 168.945746 
L 333.72108 168.921915 
L 334.869323 168.899296 
L 335.972528 168.877807 
L 337.034095 168.857375 
L 338.057054 168.837932 
L 339.044115 168.819415 
L 339.997712 168.801766 
L 340.92004 168.784932 
L 341.813084 168.768863 
L 342.678647 168.753513 
L 343.518371 168.738841 
L 344.333752 168.724807 
L 345.126163 168.711374 
L 345.896863 168.69851 
L 346.647009 168.686182 
L 347.37767 168.674363 
L 348.089832 168.663023 
L 348.784408 168.652139 
L 349.462247 168.641687 
L 350.124136 168.631644 
L 350.770809 168.62199 
L 351.402949 168.612706 
L 352.021196 168.603774 
L 352.626146 168.595176 
L 353.21836 168.586897 
L 353.798363 168.578923 
L 354.366649 168.571237 
L 354.923681 168.563829 
L 355.469896 168.556684 
L 356.005708 168.549792 
L 356.531503 168.543142 
L 357.047652 168.536721 
L 357.554499 168.530522 
L 358.052376 168.524535 
L 358.541595 168.51875 
L 359.02245 168.513159 
L 359.495224 168.507755 
L 359.960183 168.50253 
L 360.417581 168.497476 
L 360.867661 168.492587 
L 361.310654 168.487857 
L 361.746778 168.483278 
L 362.176243 168.478847 
L 362.599251 168.474556 
L 363.015991 168.470401 
L 363.426648 168.466376 
L 363.831396 168.462477 
L 364.230403 168.458699 
L 364.623829 168.455038 
L 365.011829 168.45149 
L 365.39455 168.44805 
L 365.772133 168.444715 
L 366.144716 168.441481 
L 366.512428 168.438345 
L 366.875395 168.435303 
L 367.233739 168.432352 
L 367.587575 168.429489 
L 367.937016 168.426712 
L 368.282169 168.424016 
L 368.623138 168.4214 
L 368.960024 168.418861 
L 369.292923 168.416397 
L 369.621929 168.414005 
L 369.947131 168.411682 
L 370.268616 168.409428 
L 370.586469 168.407238 
L 370.90077 168.405112 
L 371.211599 168.403048 
L 371.51903 168.401043 
L 371.823138 168.399096 
L 372.123993 168.397205 
L 372.421665 168.395368 
L 372.71622 168.393584 
L 373.007722 168.391852 
L 373.296235 168.390169 
L 373.581818 168.388534 
" style="fill:none;stroke:#9467bd;stroke-linecap:square;stroke-width:1.5;"/>
   </g>
   <g id="line2d_71">
    <path clip-path="url(#p253b1557aa)" d="M 69.218182 167.809984 
L 244.374788 169.30367 
L 263.84542 169.386524 
L 275.242 169.403748 
L 283.329945 169.40194 
L 289.604257 169.391603 
L 294.731162 169.376518 
L 299.066141 169.358528 
L 302.821425 169.338713 
L 306.133924 169.317781 
L 309.097129 169.296224 
L 311.777727 169.27439 
L 314.224961 169.252534 
L 316.47623 169.230839 
L 318.560603 169.209441 
L 320.501128 169.188435 
L 322.316385 169.16789 
L 324.021569 169.147852 
L 325.62927 169.128351 
L 327.150035 169.109407 
L 328.592784 169.091027 
L 329.965133 169.073213 
L 331.273635 169.055963 
L 332.523967 169.039267 
L 333.72108 169.023117 
L 334.869323 169.007499 
L 335.972528 168.9924 
L 337.034095 168.977804 
L 338.057054 168.963695 
L 339.044115 168.950058 
L 339.997712 168.936876 
L 340.92004 168.924134 
L 341.813084 168.911815 
L 342.678647 168.899904 
L 343.518371 168.888385 
L 344.333752 168.877245 
L 345.126163 168.866468 
L 345.896863 168.856041 
L 346.647009 168.84595 
L 347.37767 168.836183 
L 348.089832 168.826726 
L 348.784408 168.817569 
L 349.462247 168.808699 
L 350.124136 168.800106 
L 350.770809 168.79178 
L 351.402949 168.783709 
L 352.021196 168.775885 
L 352.626146 168.768298 
L 353.21836 168.76094 
L 353.798363 168.753801 
L 354.366649 168.746874 
L 354.923681 168.740152 
L 355.469896 168.733626 
L 356.005708 168.727289 
L 356.531503 168.721135 
L 357.047652 168.715158 
L 357.554499 168.70935 
L 358.052376 168.703707 
L 358.541595 168.698221 
L 359.02245 168.692889 
L 359.495224 168.687704 
L 359.960183 168.682662 
L 360.417581 168.677757 
L 360.867661 168.672985 
L 361.310654 168.668342 
L 361.746778 168.663823 
L 362.176243 168.659425 
L 362.599251 168.655142 
L 363.015991 168.650973 
L 363.426648 168.646912 
L 363.831396 168.642956 
L 364.230403 168.639103 
L 364.623829 168.635348 
L 365.011829 168.631689 
L 365.39455 168.628123 
L 365.772133 168.624647 
L 366.144716 168.621258 
L 366.512428 168.617954 
L 366.875395 168.614731 
L 367.233739 168.611588 
L 367.587575 168.608523 
L 367.937016 168.605532 
L 368.282169 168.602613 
L 368.623138 168.599765 
L 368.960024 168.596986 
L 369.292923 168.594273 
L 369.621929 168.591624 
L 369.947131 168.589039 
L 370.268616 168.586514 
L 370.586469 168.584049 
L 370.90077 168.581641 
L 371.211599 168.579289 
L 371.51903 168.576992 
L 371.823138 168.574747 
L 372.123993 168.572555 
L 372.421665 168.570412 
L 372.71622 168.568318 
L 373.007722 168.566272 
L 373.296235 168.564271 
L 373.581818 168.562316 
" style="fill:none;stroke:#8c564b;stroke-linecap:square;stroke-width:1.5;"/>
   </g>
   <g id="line2d_72">
    <path clip-path="url(#p253b1557aa)" d="M 69.218182 147.054414 
L 244.374788 157.236884 
L 263.84542 160.358261 
L 275.242 161.952017 
L 283.329945 162.934252 
L 289.604257 163.608931 
L 294.731162 164.10653 
L 299.066141 164.492389 
L 302.821425 164.802876 
L 306.133924 165.059871 
L 309.097129 165.277348 
L 311.777727 165.464674 
L 314.224961 165.628374 
L 316.47623 165.773145 
L 318.560603 165.902463 
L 320.501128 166.018961 
L 322.316385 166.124676 
L 324.021569 166.221208 
L 325.62927 166.309841 
L 327.150035 166.391613 
L 328.592784 166.467377 
L 329.965133 166.53784 
L 331.273635 166.603597 
L 332.523967 166.665149 
L 333.72108 166.722926 
L 334.869323 166.777295 
L 335.972528 166.828575 
L 337.034095 166.877043 
L 338.057054 166.922942 
L 339.044115 166.966486 
L 339.997712 167.007865 
L 340.92004 167.047247 
L 341.813084 167.084781 
L 342.678647 167.120603 
L 343.518371 167.154833 
L 344.333752 167.187581 
L 345.126163 167.218946 
L 345.896863 167.249017 
L 346.647009 167.277875 
L 347.37767 167.305597 
L 348.089832 167.33225 
L 348.784408 167.357896 
L 349.462247 167.382594 
L 350.124136 167.406396 
L 350.770809 167.429352 
L 351.402949 167.451507 
L 352.021196 167.472903 
L 352.626146 167.493579 
L 353.21836 167.513572 
L 353.798363 167.532914 
L 354.366649 167.551639 
L 354.923681 167.569775 
L 355.469896 167.587349 
L 356.005708 167.604388 
L 356.531503 167.620916 
L 357.047652 167.636955 
L 357.554499 167.652528 
L 358.052376 167.667653 
L 358.541595 167.68235 
L 359.02245 167.696636 
L 359.495224 167.71053 
L 359.960183 167.724045 
L 360.417581 167.737199 
L 360.867661 167.750004 
L 361.310654 167.762474 
L 361.746778 167.774622 
L 362.176243 167.786461 
L 362.599251 167.798001 
L 363.015991 167.809254 
L 363.426648 167.82023 
L 363.831396 167.830939 
L 364.230403 167.84139 
L 364.623829 167.851593 
L 365.011829 167.861556 
L 365.39455 167.871287 
L 365.772133 167.880794 
L 366.144716 167.890084 
L 366.512428 167.899164 
L 366.875395 167.908043 
L 367.233739 167.916724 
L 367.587575 167.925216 
L 367.937016 167.933525 
L 368.282169 167.941655 
L 368.623138 167.949612 
L 368.960024 167.957401 
L 369.292923 167.965029 
L 369.621929 167.972499 
L 369.947131 167.979816 
L 370.268616 167.986984 
L 370.586469 167.994009 
L 370.90077 168.000893 
L 371.211599 168.007642 
L 371.51903 168.014259 
L 371.823138 168.020747 
L 372.123993 168.02711 
L 372.421665 168.033352 
L 372.71622 168.039475 
L 373.007722 168.045484 
L 373.296235 168.05138 
L 373.581818 168.057168 
" style="fill:none;stroke:#e377c2;stroke-linecap:square;stroke-width:1.5;"/>
   </g>
   <g id="line2d_73">
    <path clip-path="url(#p253b1557aa)" d="M 69.218182 182.085099 
L 244.374788 182.150422 
L 263.84542 180.838915 
L 275.242 179.748184 
L 283.329945 178.845912 
L 289.604257 178.087058 
L 294.731162 177.43871 
L 299.066141 176.877413 
L 302.821425 176.386092 
L 306.133924 175.951994 
L 309.097129 175.565375 
L 311.777727 175.218642 
L 314.224961 174.905773 
L 316.47623 174.621929 
L 318.560603 174.363166 
L 320.501128 174.126237 
L 322.316385 173.908439 
L 324.021569 173.707507 
L 325.62927 173.521522 
L 327.150035 173.34885 
L 328.592784 173.18809 
L 329.965133 173.038033 
L 331.273635 172.897631 
L 332.523967 172.765966 
L 333.72108 172.642239 
L 334.869323 172.525744 
L 335.972528 172.415856 
L 337.034095 172.312022 
L 338.057054 172.21375 
L 339.044115 172.120599 
L 339.997712 172.032176 
L 340.92004 171.948124 
L 341.813084 171.868124 
L 342.678647 171.791887 
L 343.518371 171.719151 
L 344.333752 171.649678 
L 345.126163 171.583251 
L 345.896863 171.519671 
L 346.647009 171.458758 
L 347.37767 171.400347 
L 348.089832 171.344284 
L 348.784408 171.290429 
L 349.462247 171.238653 
L 350.124136 171.188838 
L 350.770809 171.140873 
L 351.402949 171.094655 
L 352.021196 171.050091 
L 352.626146 171.007092 
L 353.21836 170.965576 
L 353.798363 170.925468 
L 354.366649 170.886697 
L 354.923681 170.849196 
L 355.469896 170.812903 
L 356.005708 170.77776 
L 356.531503 170.743714 
L 357.047652 170.710713 
L 357.554499 170.67871 
L 358.052376 170.647659 
L 358.541595 170.617518 
L 359.02245 170.588248 
L 359.495224 170.559812 
L 359.960183 170.532173 
L 360.417581 170.505298 
L 360.867661 170.479157 
L 361.310654 170.453719 
L 361.746778 170.428955 
L 362.176243 170.40484 
L 362.599251 170.381348 
L 363.015991 170.358455 
L 363.426648 170.336139 
L 363.831396 170.314376 
L 364.230403 170.293148 
L 364.623829 170.272435 
L 365.011829 170.252217 
L 365.39455 170.232477 
L 365.772133 170.213199 
L 366.144716 170.194366 
L 366.512428 170.175962 
L 366.875395 170.157974 
L 367.233739 170.140387 
L 367.587575 170.123189 
L 367.937016 170.106365 
L 368.282169 170.089904 
L 368.623138 170.073794 
L 368.960024 170.058024 
L 369.292923 170.042584 
L 369.621929 170.027462 
L 369.947131 170.01265 
L 370.268616 169.998138 
L 370.586469 169.983916 
L 370.90077 169.969976 
L 371.211599 169.95631 
L 371.51903 169.942909 
L 371.823138 169.929766 
L 372.123993 169.916874 
L 372.421665 169.904225 
L 372.71622 169.891813 
L 373.007722 169.87963 
L 373.296235 169.867671 
L 373.581818 169.85593 
" style="fill:none;stroke:#7f7f7f;stroke-linecap:square;stroke-width:1.5;"/>
   </g>
   <g id="line2d_74">
    <path clip-path="url(#p253b1557aa)" d="M 69.218182 185.94081 
L 244.374788 177.254574 
L 263.84542 173.843434 
L 275.242 172.102249 
L 283.329945 171.060162 
L 289.604257 170.376038 
L 294.731162 169.898932 
L 299.066141 169.551781 
L 302.821425 169.291174 
L 306.133924 169.090821 
L 309.097129 168.933901 
L 311.777727 168.809171 
L 314.224961 168.708848 
L 316.47623 168.627381 
L 318.560603 168.560717 
L 320.501128 168.505834 
L 322.316385 168.460435 
L 324.021569 168.42275 
L 325.62927 168.391395 
L 327.150035 168.365276 
L 328.592784 168.343516 
L 329.965133 168.325409 
L 331.273635 168.310379 
L 332.523967 168.297952 
L 333.72108 168.287739 
L 334.869323 168.279413 
L 335.972528 168.272705 
L 337.034095 168.267383 
L 338.057054 168.263256 
L 339.044115 168.260159 
L 339.997712 168.257951 
L 340.92004 168.256514 
L 341.813084 168.255744 
L 342.678647 168.255552 
L 343.518371 168.255862 
L 344.333752 168.256607 
L 345.126163 168.257729 
L 345.896863 168.259179 
L 346.647009 168.260911 
L 347.37767 168.262888 
L 348.089832 168.265077 
L 348.784408 168.267446 
L 349.462247 168.269972 
L 350.124136 168.27263 
L 350.770809 168.2754 
L 351.402949 168.278265 
L 352.021196 168.281209 
L 352.626146 168.284218 
L 353.21836 168.28728 
L 353.798363 168.290384 
L 354.366649 168.293521 
L 354.923681 168.296681 
L 355.469896 168.299858 
L 356.005708 168.303044 
L 356.531503 168.306235 
L 357.047652 168.309423 
L 357.554499 168.312606 
L 358.052376 168.315779 
L 358.541595 168.318939 
L 359.02245 168.322081 
L 359.495224 168.325204 
L 359.960183 168.328305 
L 360.417581 168.331382 
L 360.867661 168.334434 
L 361.310654 168.337457 
L 361.746778 168.340452 
L 362.176243 168.343417 
L 362.599251 168.346351 
L 363.015991 168.349254 
L 363.426648 168.352124 
L 363.831396 168.35496 
L 364.230403 168.357763 
L 364.623829 168.360533 
L 365.011829 168.363268 
L 365.39455 168.365969 
L 365.772133 168.368636 
L 366.144716 168.371268 
L 366.512428 168.373865 
L 366.875395 168.376429 
L 367.233739 168.378958 
L 367.587575 168.381453 
L 367.937016 168.383914 
L 368.282169 168.386341 
L 368.623138 168.388735 
L 368.960024 168.391096 
L 369.292923 168.393424 
L 369.621929 168.395719 
L 369.947131 168.397983 
L 370.268616 168.400214 
L 370.586469 168.402414 
L 370.90077 168.404583 
L 371.211599 168.406721 
L 371.51903 168.408828 
L 371.823138 168.410906 
L 372.123993 168.412954 
L 372.421665 168.414973 
L 372.71622 168.416964 
L 373.007722 168.418926 
L 373.296235 168.420859 
L 373.581818 168.422766 
" style="fill:none;stroke:#bcbd22;stroke-linecap:square;stroke-width:1.5;"/>
   </g>
   <g id="patch_3">
    <path d="M 54 252 
L 54 34.56 
" style="fill:none;stroke:#000000;stroke-linecap:square;stroke-linejoin:miter;stroke-width:0.8;"/>
   </g>
   <g id="patch_4">
    <path d="M 388.8 252 
L 388.8 34.56 
" style="fill:none;stroke:#000000;stroke-linecap:square;stroke-linejoin:miter;stroke-width:0.8;"/>
   </g>
   <g id="patch_5">
    <path d="M 54 252 
L 388.8 252 
" style="fill:none;stroke:#000000;stroke-linecap:square;stroke-linejoin:miter;stroke-width:0.8;"/>
   </g>
   <g id="patch_6">
    <path d="M 54 34.56 
L 388.8 34.56 
" style="fill:none;stroke:#000000;stroke-linecap:square;stroke-linejoin:miter;stroke-width:0.8;"/>
   </g>
   <g id="text_15">
    <!-- Coefficients Ridge en fonction de alpha -->
    <g transform="translate(103.332188 28.56)scale(0.12 -0.12)">
     <defs>
      <path d="M 2841 2188 
Q 3044 2119 3236 1894 
Q 3428 1669 3622 1275 
L 4263 0 
L 3584 0 
L 2988 1197 
Q 2756 1666 2539 1819 
Q 2322 1972 1947 1972 
L 1259 1972 
L 1259 0 
L 628 0 
L 628 4666 
L 2053 4666 
Q 2853 4666 3247 4331 
Q 3641 3997 3641 3322 
Q 3641 2881 3436 2590 
Q 3231 2300 2841 2188 
z
M 1259 4147 
L 1259 2491 
L 2053 2491 
Q 2509 2491 2742 2702 
Q 2975 2913 2975 3322 
Q 2975 3731 2742 3939 
Q 2509 4147 2053 4147 
L 1259 4147 
z
" id="DejaVuSans-52" transform="scale(0.015625)"/>
      <path d="M 2906 2969 
L 2906 4863 
L 3481 4863 
L 3481 0 
L 2906 0 
L 2906 525 
Q 2725 213 2448 61 
Q 2172 -91 1784 -91 
Q 1150 -91 751 415 
Q 353 922 353 1747 
Q 353 2572 751 3078 
Q 1150 3584 1784 3584 
Q 2172 3584 2448 3432 
Q 2725 3281 2906 2969 
z
M 947 1747 
Q 947 1113 1208 752 
Q 1469 391 1925 391 
Q 2381 391 2643 752 
Q 2906 1113 2906 1747 
Q 2906 2381 2643 2742 
Q 2381 3103 1925 3103 
Q 1469 3103 1208 2742 
Q 947 2381 947 1747 
z
" id="DejaVuSans-64" transform="scale(0.015625)"/>
      <path d="M 2906 1791 
Q 2906 2416 2648 2759 
Q 2391 3103 1925 3103 
Q 1463 3103 1205 2759 
Q 947 2416 947 1791 
Q 947 1169 1205 825 
Q 1463 481 1925 481 
Q 2391 481 2648 825 
Q 2906 1169 2906 1791 
z
M 3481 434 
Q 3481 -459 3084 -895 
Q 2688 -1331 1869 -1331 
Q 1566 -1331 1297 -1286 
Q 1028 -1241 775 -1147 
L 775 -588 
Q 1028 -725 1275 -790 
Q 1522 -856 1778 -856 
Q 2344 -856 2625 -561 
Q 2906 -266 2906 331 
L 2906 616 
Q 2728 306 2450 153 
Q 2172 0 1784 0 
Q 1141 0 747 490 
Q 353 981 353 1791 
Q 353 2603 747 3093 
Q 1141 3584 1784 3584 
Q 2172 3584 2450 3431 
Q 2728 3278 2906 2969 
L 2906 3500 
L 3481 3500 
L 3481 434 
z
" id="DejaVuSans-67" transform="scale(0.015625)"/>
     </defs>
     <use xlink:href="#DejaVuSans-43"/>
     <use x="69.824219" xlink:href="#DejaVuSans-6f"/>
     <use x="131.005859" xlink:href="#DejaVuSans-65"/>
     <use x="192.529297" xlink:href="#DejaVuSans-66"/>
     <use x="227.734375" xlink:href="#DejaVuSans-66"/>
     <use x="262.939453" xlink:href="#DejaVuSans-69"/>
     <use x="290.722656" xlink:href="#DejaVuSans-63"/>
     <use x="345.703125" xlink:href="#DejaVuSans-69"/>
     <use x="373.486328" xlink:href="#DejaVuSans-65"/>
     <use x="435.009766" xlink:href="#DejaVuSans-6e"/>
     <use x="498.388672" xlink:href="#DejaVuSans-74"/>
     <use x="537.597656" xlink:href="#DejaVuSans-73"/>
     <use x="589.697266" xlink:href="#DejaVuSans-20"/>
     <use x="621.484375" xlink:href="#DejaVuSans-52"/>
     <use x="690.966797" xlink:href="#DejaVuSans-69"/>
     <use x="718.75" xlink:href="#DejaVuSans-64"/>
     <use x="782.226562" xlink:href="#DejaVuSans-67"/>
     <use x="845.703125" xlink:href="#DejaVuSans-65"/>
     <use x="907.226562" xlink:href="#DejaVuSans-20"/>
     <use x="939.013672" xlink:href="#DejaVuSans-65"/>
     <use x="1000.537109" xlink:href="#DejaVuSans-6e"/>
     <use x="1063.916016" xlink:href="#DejaVuSans-20"/>
     <use x="1095.703125" xlink:href="#DejaVuSans-66"/>
     <use x="1130.908203" xlink:href="#DejaVuSans-6f"/>
     <use x="1192.089844" xlink:href="#DejaVuSans-6e"/>
     <use x="1255.46875" xlink:href="#DejaVuSans-63"/>
     <use x="1310.449219" xlink:href="#DejaVuSans-74"/>
     <use x="1349.658203" xlink:href="#DejaVuSans-69"/>
     <use x="1377.441406" xlink:href="#DejaVuSans-6f"/>
     <use x="1438.623047" xlink:href="#DejaVuSans-6e"/>
     <use x="1502.001953" xlink:href="#DejaVuSans-20"/>
     <use x="1533.789062" xlink:href="#DejaVuSans-64"/>
     <use x="1597.265625" xlink:href="#DejaVuSans-65"/>
     <use x="1658.789062" xlink:href="#DejaVuSans-20"/>
     <use x="1690.576172" xlink:href="#DejaVuSans-61"/>
     <use x="1751.855469" xlink:href="#DejaVuSans-6c"/>
     <use x="1779.638672" xlink:href="#DejaVuSans-70"/>
     <use x="1843.115234" xlink:href="#DejaVuSans-68"/>
     <use x="1906.494141" xlink:href="#DejaVuSans-61"/>
    </g>
   </g>
  </g>
 </g>
 <defs>
  <clipPath id="p253b1557aa">
   <rect height="217.44" width="334.8" x="54" y="34.56"/>
  </clipPath>
 </defs>
</svg>
